<?xml version="1.0" standalone="no"?>
<svg version="1.1" id="color_x5F_1" xmlns="http://www.w3.org/2000/svg" xmlns:xlink="http://www.w3.org/1999/xlink" x="0px" y="0px" width="600px" height="600px" viewBox="0 0 600 600" enable-background="new 0 0 600 600" xml:space="preserve">
<polygon id="color_x5F_13" fill="#6BA7D0" points="268.705,549.706 34.369,414.648 34.369,428.053 268.705,564.32 565.53,392.475 
	565.53,374.836 "></polygon>
<path id="color_x5F_12" fill="#B8C9C1" d="M262.859,390.963v0.101l31.749,18.344l-0.101-36.788l-31.648-18.243V390.963z
	 M271.225,379.473v-12.195l12.296,7.156v12.195l4.636,2.721l-10.885,4.535l-10.885-17.033L271.225,379.473z M308.617,401.444v1.109
	v0.402v1.915v3.528l5.645,3.225l1.714,1.008l12.699,7.358l-0.101-23.081l-19.855-11.49v16.025H308.617z M313.858,401.143v-7.66
	l7.761,4.435v7.66l2.923,1.713l-6.753,2.923l-6.753-10.684L313.858,401.143z M424.425,440.249l-0.101-15.018l-12.901-7.459v0.604
	v4.838v3.629v1.915v0.302v1.915v1.714l5.141,3.023l4.132,2.419L424.425,440.249z M413.035,426.844l1.915,1.108v-4.938l5.04,2.923
	v5.039l1.915,1.109l-4.436,1.813L413.035,426.844z M325.651,377.961l-8.971-5.241v7.962v2.52l8.971,5.242V377.961z M320.813,384.008
	l-3.125-4.838l1.311,0.807v-3.527l3.527,2.016v3.427l1.311,0.806L320.813,384.008z M372.417,438.132l-13.002-7.458v-0.604v-5.847
	V421.3v-4.838v-0.806l13.002,7.458l0,0l0,0V438.132z M387.435,153.301c0.102,0,0.202-0.101,0.303-0.101l9.071-5.141l0.403-0.101
	l0.504-0.101l0.402-0.101h0.504h0.505l0.504,0.101l0.504,0.101l0.504,0.202l0.504,0.202l0.504,0.201l0.504,0.303l0.504,0.302
	l0.201,0.101l0.202,0.101l0.201,0.101l0.202,0.101l0.201,0.101l0.201,0.101l0.202,0.101l0.201,0.202l0.202,0.101l0.201,0.101
	l0.202,0.201l0.201,0.202l0.201,0.101l0.202,0.202l0.201,0.202v0.101l8.567-4.938l0.504-0.202l0.504-0.101l0.504-0.101l0.504-0.101
	h0.604h0.605l0.604,0.101l0.604,0.101l0.604,0.101l0.605,0.202l0.604,0.201l0.604,0.303l0.604,0.302l0.706,0.302l0.604,0.403
	l0.706,0.403l0.705,0.504l0.706,0.504l0.705,0.604l0.706,0.605l0.705,0.604l0.706,0.706l0.604,0.706l0.705,0.706l0.604,0.806
	l0.605,0.806l0.604,0.807l0.604,0.907l0.605,0.907l0.604,0.907l0.504,0.907l0.504,0.907l0.504,1.008l0.403,1.008l0.403,1.008
	l0.402,1.008l0.403,1.008l0.403,1.008l0.303,1.008l0.302,1.008l0.303,1.008l0.302,1.008l0.202,1.008l0.201,1.008l0.202,1.008
	l0.101,1.008l0.101,1.008l0.303,0.302l0.302,0.202l0.303,0.302l0.303,0.303l0.302,0.302l0.303,0.302l0.302,0.303l0.303,0.302
	l0.303,0.302l0.302,0.302l0.303,0.302l0.303,0.403l0.302,0.403l0.202,0.403l0.302,0.403l0.202,0.403l0.201,0.403l0.202,0.403
	l0.201,0.403l0.201,0.403l0.202,0.403l0.201,0.403l0.202,0.403l0.201,0.403l0.201,0.403l0.202,0.403l0.201,0.504l0.102,0.403
	l0.101,0.403l0.101,0.403l0.101,0.403l0.101,0.504h0.102h0.101h0.101h0.101h0.102h0.101h0.101h0.101l0.101,0.101h0.102l0.101,0.101
	h0.101l0.101,0.101h0.101l0.102,0.101l0.101,0.101l0.302,0.202l0.303,0.202l0.303,0.202l0.302,0.302l0.303,0.202l0.303,0.302
	l0.302,0.302l0.303,0.303l0.302,0.302l0.202,0.302l0.302,0.302l0.202,0.403l0.201,0.302l0.202,0.403l0.201,0.403l0.202,0.403
	l0.201,0.403l0.201,0.403l0.202,0.403l0.201,0.403l0.202,0.403l0.101,0.403l0.101,0.403l0.101,0.403l0.102,0.403l0.101,0.403
	l0.101,0.403l0.101,0.403l0.101,0.403v0.403v0.403v0.403v0.403v0.403v0.403l-0.101,0.403l-0.101,0.403l-0.101,0.302l-0.101,0.303
	l-0.102,0.302l-0.101,0.302l-0.101,0.302l-0.101,0.303l-0.202,0.201l-0.201,0.202l-0.202,0.202l-0.201,0.202l-0.201,0.202
	l-8.971,5.241c-0.201,0.202-0.403,0.303-0.705,0.403c1.41-0.604,2.317-2.419,2.317-5.04c0-4.334-2.52-9.374-5.745-11.188
	c-0.402-0.302-0.906-0.403-1.31-0.605c-1.008-4.737-3.729-9.272-6.955-11.691c-0.806-10.986-7.257-22.98-15.219-27.616
	c-6.954-4.032-12.901-1.008-14.716,6.652c-1.512-2.117-3.325-3.931-5.24-5.04C391.265,152.797,389.148,152.595,387.435,153.301z
	 M287.351,127.499V99.782l28.725,16.529l0.101-0.101v11.49c-3.226-0.907-5.745,0.504-6.753,3.528
	c-1.411-1.411-2.923-2.621-4.535-3.528c-4.939-2.822-9.172-1.915-10.986,1.814c-0.302-0.202-0.706-0.504-1.008-0.706
	C290.778,127.7,288.963,127.297,287.351,127.499z M439.543,208.634c-0.101,0-0.302,0-0.403,0
	C439.24,208.735,439.442,208.634,439.543,208.634z M439.14,208.735c-0.101,0-0.302,0-0.403,0
	C438.838,208.634,439.039,208.634,439.14,208.735z M447.707,434.504c0.101,1.411-0.504,2.822-1.915,3.527l-79.321,45.759
	c-2.318,1.31-5.241,1.31-7.66,0l-119.738-69.142c-1.31-0.706-1.915-2.017-1.915-3.326v-3.125v0.102c0,0.201,0.101,0.504,0.101,0.705
	v0.101c0.101,0.202,0.201,0.504,0.302,0.706c0,0,0,0.101,0.101,0.101c0.101,0.201,0.302,0.504,0.504,0.705l0,0
	c0.202,0.202,0.504,0.403,0.807,0.605l119.838,69.142c2.318,1.41,5.241,1.41,7.66,0l79.321-45.759c0.101,0,0.101-0.101,0.202-0.101
	c0.201-0.102,0.302-0.202,0.504-0.403l0.101-0.101c0.201-0.202,0.403-0.403,0.504-0.706c0,0,0,0,0-0.101
	c0.302-0.504,0.504-1.108,0.504-1.612v2.923H447.707z M248.446,203.494l9.776-4.132l-4.233-2.419v-11.087l-11.188-6.451v0.706
	c-0.101-0.302-0.201-0.605-0.403-0.907c0.604-0.504,0.907-1.31,0.907-2.419c0-1.915-1.008-4.132-2.419-5.644l22.879,13.204
	l0.101,33.16l-0.403-0.202l-21.267-12.296c-0.101-2.923-0.907-6.047-2.318-9.071c0.807-0.706,1.311-1.814,1.512-3.326
	L248.446,203.494z M483.185,259.835v0.302v0.302v0.303v0.302v0.202l-0.101,0.302l-0.101,0.202l-0.101,0.202l-0.101,0.201
	l-0.102,0.202l-0.101,0.202l-0.101,0.202l-0.101,0.202l-0.102,0.101l-0.101,0.202l-0.101,0.101l-0.101,0.101l-6.048,3.528
	c-0.101,0.101-0.101,0.101-0.201,0.101c0.807-0.504,1.311-1.613,1.311-3.225c0-2.923-1.714-6.249-3.83-7.458
	c-0.303-0.202-0.605-0.302-0.907-0.403c-0.706-3.225-2.52-6.249-4.637-7.861c-0.604-7.358-4.938-15.421-10.18-18.445
	c-4.636-2.721-8.668-0.706-9.877,4.435c-1.008-1.411-2.218-2.621-3.528-3.326c-1.512-0.907-2.923-1.008-4.132-0.605
	c0.101,0,0.101-0.101,0.201-0.101l6.048-3.528l0.302-0.101l0.303-0.101l0.303-0.101h0.302h0.303l0.303,0.101l0.402,0.101
	l0.303,0.101l0.403,0.101l0.403,0.202l0.402,0.201l0.403,0.202l0.101,0.101l0.102,0.101l0.101,0.101l0.101,0.101l0.101,0.101
	l0.102,0.101l0.101,0.101l0.101,0.101l0.101,0.101l0.101,0.101l0.102,0.101l0.101,0.101l0.101,0.101l0.101,0.101l0.101,0.101l0,0
	l5.745-3.326l0.303-0.101l0.403-0.101l0.403-0.101l0.402-0.101h0.403h0.403l0.403,0.101l0.403,0.101l0.403,0.101l0.402,0.101
	l0.403,0.101l0.403,0.202l0.403,0.202l0.403,0.202l0.403,0.202l0.504,0.302l0.504,0.302l0.504,0.403l0.504,0.403l0.504,0.403
	l0.504,0.403l0.403,0.504l0.504,0.504l0.403,0.504l0.402,0.504l0.403,0.504l0.403,0.605l0.403,0.604l0.403,0.605l0.402,0.604
	l0.403,0.605l0.303,0.604l0.303,0.605l0.302,0.706l0.303,0.604l0.302,0.706l0.303,0.706l0.201,0.706l0.202,0.706l0.201,0.706
	l0.202,0.706l0.201,0.706l0.202,0.706l0.101,0.706l0.101,0.705l0.101,0.706l0.101,0.706l0.202,0.202l0.201,0.202l0.202,0.202
	l0.201,0.202l0.202,0.201l0.201,0.202l0.201,0.202l0.202,0.202l0.201,0.202l0.202,0.201l0.201,0.202l0.202,0.202l0.201,0.202
	l0.201,0.302l0.202,0.303l0.201,0.302l0.101,0.302l0.202,0.302l0.201,0.302l0.102,0.303l0.101,0.302l0.101,0.302l0.101,0.303
	l0.101,0.302l0.102,0.302l0.101,0.302l0.101,0.303l0.101,0.302l0.102,0.302l0.101,0.302l0.101,0.303l0.101,0.302h0.101h0.102h0.101
	h0.101h0.101h0.101h0.102h0.101h0.101h0.101h0.102h0.101h0.101h0.101h0.101l0.102,0.101l0.201,0.101l0.201,0.202l0.202,0.101
	l0.201,0.202l0.202,0.202l0.201,0.202l0.202,0.201l0.201,0.202l0.201,0.202l0.202,0.202l0.201,0.202l0.202,0.201l0.201,0.202
	l0.202,0.202l0.101,0.302l0.201,0.303l0.101,0.302l0.102,0.302l0.101,0.302l0.101,0.303l0.101,0.302l0.102,0.302l0.101,0.302
	l0.101,0.302l0.101,0.303l0.101,0.302l0.102,0.302l0.101,0.302v0.303v0.302L483.185,259.835z M454.46,331.295v6.652v2.217v43.844
	v2.52v4.233v16.228v1.713v3.326v10.785c0,2.721-2.722,3.829-4.737,5.039c0,0,0.101,0,0.101-0.101
	c0.102-0.101,0.202-0.101,0.303-0.202l0,0c0.504-0.402,0.807-0.907,1.108-1.512l0,0c0.102-0.101,0.102-0.302,0.102-0.403
	c0-0.101,0-0.101,0-0.201s0-0.201,0.101-0.303c0-0.201,0-0.302,0-0.504v-91.617c0-2.722-1.512-5.241-3.83-6.652l-119.738-69.142
	c-0.201-0.101-0.302-0.202-0.504-0.202c0,0,0,0-0.101,0c-0.101-0.101-0.303-0.101-0.403-0.101h-0.101
	c-0.101,0-0.303-0.101-0.403-0.101s-0.101,0-0.201,0c-0.102,0-0.202,0-0.303,0s-0.101,0-0.201,0c-0.102,0-0.202,0-0.303,0
	s-0.101,0-0.202,0c-0.101,0-0.201,0-0.201,0.101c-0.101,0-0.201,0.101-0.303,0.101c-0.101,0-0.101,0-0.201,0.101
	c-0.101,0-0.201,0.101-0.303,0.101c0,0-0.101,0-0.101,0.101h-0.101l2.923-1.814c1.108-0.706,2.62-0.806,3.931-0.101l95.246,55.031
	l11.591,6.753l1.915,1.108l10.886,6.25c0.402,0.201,0.705,0.504,1.108,0.705C453.452,326.86,454.46,328.977,454.46,331.295z
	 M168.52,215.689v33.16l13.405,7.761l1.814,1.008l6.551,3.729l6.955,4.032l-0.101-33.16L168.52,215.689z M181.724,251.268
	l-9.777-15.42l4.233,2.419V227.18l11.188,6.45v11.087l4.233,2.419L181.724,251.268z M236.654,86.78L236.654,86.78v8.265
	c-1.008-1.411-2.217-2.621-3.427-3.326c-2.52-1.512-4.737-0.806-5.543,1.411c-0.806-0.806-1.713-1.512-2.621-2.117
	c-2.923-1.612-5.342-1.108-6.451,1.109c-0.201-0.101-0.403-0.302-0.604-0.403c-0.605-0.403-1.209-0.604-1.814-0.706V74.987
	L236.654,86.78z M142.718,145.842c-2.721-1.814-5.342-4.132-7.66-6.955c-1.613,0.504-3.528,0.202-5.645-0.907
	c-0.202-0.101-0.403-0.202-0.604-0.302c-0.202-0.202-0.403-0.303-0.706-0.403c-0.907-0.605-1.713-1.209-2.52-2.016
	c-1.714,0.907-4.032,0.806-6.552-0.504c-0.201-0.101-0.403-0.202-0.604-0.303c-0.202-0.101-0.403-0.302-0.706-0.403
	c-1.31-0.806-2.52-1.915-3.628-3.124v27.112l28.725,16.529L142.718,145.842L142.718,145.842z M127.297,160.457l-9.777-15.421
	l4.233,2.419v-11.087l11.188,6.451v11.087l4.233,2.419L127.297,160.457z M62.994,193.617v33.16l28.725,16.529l-0.101-33.16
	L62.994,193.617z M76.096,229.195l-9.777-15.421l4.233,2.419v-11.087l11.087,6.451v11.087l4.233,2.419L76.096,229.195z
	 M170.536,167.916l-8.063-4.636l-1.31-0.807V144.23v-14.917l28.523,16.529v15.723c-2.217-1.209-4.334-1.411-5.947-0.907
	l-3.931-2.318v-11.087l-11.087-6.451v11.087l-4.233-2.419l8.265,13.002C171.342,163.682,170.536,165.497,170.536,167.916z
	 M158.643,85.47c-0.202-0.101-0.403-0.202-0.604-0.303v-3.023l-8.668-5.04v8.567l-3.225-1.915l1.814,2.822
	c-1.008-0.907-2.016-1.612-3.125-2.217c-0.403-0.302-0.907-0.504-1.31-0.706V68.033l22.274,12.8l0,0v12.095l0,0
	C163.884,89.804,161.465,87.082,158.643,85.47z"></path>
<path id="color_x5F_11" fill="#06CE95" d="M454.057,307.307c0,0,1.008,0.605,2.117,3.932c0,0.101,0.101,0.303,0.101,0.402
	c1.008,3.125-2.722,8.063-3.528,13.809c-0.302,0-0.705,0-1.108,0.102c-0.302-0.303-0.705-0.504-1.108-0.706l-10.886-6.249
	c0-1.209,0.102-2.419,0.202-3.629l0.101-0.806c1.008-10.886,8.265-16.328,15.421-23.182c-7.56,4.031-11.288,6.047-15.22,14.917
	c-0.101-5.544-0.906-11.087-3.829-15.824c-3.528-5.846-9.575-7.66-15.32-9.374c-5.846-1.713-11.39-3.326-13.103-9.374
	c-1.109-3.729-1.21-6.551-1.411-9.071c-0.604-11.389-4.435-13.405-14.11-18.042c6.651,4.536,11.489,6.955,12.095,18.243
	c0.201,2.621,0.302,5.543,1.411,9.474c0.906,3.326,2.821,5.543,5.14,7.055c-8.466,1.613-11.288-1.209-17.537-5.543
	c4.535,7.862,11.389,9.575,20.158,6.955c2.016,0.907,4.334,1.613,6.651,2.318c5.342,1.613,10.986,3.326,14.111,8.466
	c4.031,6.652,3.729,15.118,3.325,22.98c-0.101,0.806-0.101,1.512-0.101,2.317c0,0.404,0,0.807,0,1.21l-11.591-6.753
	c0.807,0.201,1.311,0.303,1.311,0.303c-2.621-4.334-15.32-11.289-16.429-14.313c-1.108-3.023,3.628-5.342,3.628-5.342
	c-7.659,4.032-27.112-3.427-28.624-12.498c-0.504-2.923,0.303-5.442,1.512-7.559c2.621-4.435,7.358-6.854,7.358-6.854
	s-8.567-10.583-9.475-15.623c-0.807-5.04,1.008-17.638,17.134-9.978c6.652,3.125,11.087,7.458,14.111,11.49
	c1.813,2.419,3.124,4.838,3.931,6.652c1.814,4.132,1.008,8.97,3.023,11.087c2.52,2.721,5.442-1.613,12.195,2.217
	s10.079,16.731,10.079,16.731s1.512-5.04,5.04-5.342c3.527-0.302,9.776,4.435,9.978,13.304
	C461.213,303.779,454.057,307.307,454.057,307.307z M127.398,346.816c3.326,6.35,10.281,2.822,10.281,2.822
	C137.88,346.816,131.329,342.482,127.398,346.816z M138.183,184.143c0,0,3.023,9.373,11.691,6.753
	C150.176,183.538,140.5,181.522,138.183,184.143z M213.271,380.178c2.016,12.096,15.32,9.979,15.32,9.979
	C230.405,385.722,222.04,375.239,213.271,380.178z M156.929,327.364c3.326,6.35,10.381,2.822,10.381,2.822
	C167.512,327.364,160.86,323.03,156.929,327.364z M111.473,243.507c0,0,3.024,9.374,11.692,6.753
	C123.568,242.903,113.792,240.786,111.473,243.507z M325.349,61.784c-2.318-2.621-11.994-0.605-11.691,6.753
	C322.325,71.157,325.349,61.784,325.349,61.784z M101.697,139.291c6.45,2.016,8.769-5.04,8.769-5.04
	C108.752,132.236,101.495,133.849,101.697,139.291z M349.639,176.986c0-3.023-2.116-6.551-4.636-8.063
	c-1.613-0.907-3.125-0.806-3.932,0.202c-1.41-3.125-3.729-6.047-6.35-7.56c-2.923-1.713-5.543-1.31-6.753,0.706
	c-1.008-1.814-2.52-3.427-4.132-4.435c-2.52-1.512-4.737-0.806-5.442,1.411c-0.807-0.806-1.714-1.512-2.621-2.117
	c-2.923-1.713-5.342-1.109-6.45,1.109c-0.202-0.101-0.403-0.303-0.604-0.403c-3.326-1.915-6.048-0.403-6.048,3.427
	c0,0.504,0.101,1.008,0.202,1.613c-3.528-1.109-6.25,0.907-6.25,5.241c0,1.209,0.202,2.419,0.605,3.628
	c-1.714,0.202-2.822,1.714-2.822,4.233c0,3.628,2.52,8.164,5.644,10.18c0.101,0.101,0.302,0.202,0.403,0.202
	c0.101,0.101,0.202,0.202,0.404,0.202c1.512,0.806,2.821,0.806,3.829,0.302c0.504,0.403,1.009,0.806,1.512,1.209
	c0.102,0.101,0.303,0.202,0.403,0.202c0.101,0.101,0.202,0.202,0.403,0.202c1.21,0.604,2.318,0.806,3.326,0.504
	c1.008,1.31,2.217,2.419,3.427,3.326c0.303,0.302,0.705,0.504,1.008,0.705c0.201,0.202,0.504,0.303,0.705,0.403
	c0.202,0.101,0.403,0.302,0.706,0.403c4.031,2.016,7.458,1.209,9.071-1.915l0.101,0.101c0.201,0.202,0.504,0.303,0.705,0.403
	c0.202,0.101,0.403,0.202,0.605,0.302c2.821,1.411,5.342,1.512,7.155,0.302c0.807,0.706,1.513,1.411,2.318,1.915
	c0.202,0.101,0.403,0.202,0.504,0.303c0.202,0.101,0.303,0.201,0.504,0.302c2.923,1.512,5.544,1.008,6.854-1.109
	c0.505-0.706,0.807-1.612,0.907-2.721c3.226,0.605,5.645-1.613,5.645-5.745c0-2.016-0.604-4.233-1.512-6.35
	C349.235,179.204,349.639,178.196,349.639,176.986z M304.385,336.536c0,0,6.651,1.008,7.659-5.04
	C307.71,329.078,303.477,334.318,304.385,336.536z M332.102,237.057c6.249,1.915,8.567-4.939,8.567-4.939
	C338.955,230.203,331.9,231.715,332.102,237.057z M369.494,117.924c1.411,3.225,2.318,6.551,2.318,9.575
	c0,6.249-3.527,9.575-8.466,8.667c-0.706,6.35-5.645,8.87-11.692,5.846c-0.302-0.101-0.504-0.303-0.806-0.403
	c-0.303-0.202-0.504-0.302-0.807-0.504c-0.201-0.101-0.403-0.303-0.705-0.504c-0.202,2.62-0.605,5.039-1.311,7.156
	c-2.116-4.636-5.342-8.869-9.172-11.591l5.745-3.326v-15.32v-1.411V99.782l-28.726-16.63l-28.523,16.63v27.717
	c-2.923,0.403-4.838,3.023-4.838,7.257c0,0.907,0.101,1.814,0.302,2.822c-3.83-1.31-7.156-0.202-8.97,2.621
	c2.318,1.613,4.334,4.132,5.543,6.955c0.806-1.008,2.318-1.109,3.931-0.202c2.621,1.512,4.737,5.14,4.737,8.063
	c0,1.311-0.403,2.217-1.008,2.721c1.008,2.117,1.512,4.334,1.512,6.35c0,4.132-2.318,6.35-5.645,5.745
	c-0.504,4.233-3.729,5.846-7.761,3.83c-0.202-0.101-0.302-0.201-0.504-0.302c-0.202-0.101-0.403-0.202-0.504-0.302
	c-0.706-0.504-1.31-1.008-1.915-1.613c-0.101-0.101-0.302-0.202-0.403-0.403c-1.814,1.209-4.333,1.209-7.156-0.303
	c-0.202-0.101-0.403-0.201-0.605-0.403c-0.201-0.101-0.504-0.303-0.706-0.403l-0.101-0.101c-1.613,3.125-5.04,3.931-9.071,1.915
	c-0.202-0.101-0.403-0.201-0.605-0.302c-0.302-0.202-0.504-0.302-0.706-0.403c-1.613-1.008-3.125-2.419-4.435-4.032
	c-0.907,0.302-2.016,0.101-3.326-0.504c-0.101-0.101-0.202-0.101-0.403-0.202c-0.101-0.101-0.302-0.202-0.403-0.302
	c-0.504-0.302-1.008-0.706-1.512-1.209c-0.705,0.403-1.713,0.504-2.721,0.201l-4.737,2.722v1.008
	c-1.311-2.419-3.125-4.636-5.241-5.846c-2.621-1.512-4.838-1.109-6.047,0.604c-0.907-1.612-2.217-3.125-3.729-3.931
	c-2.318-1.31-4.233-0.706-4.838,1.311c-0.705-0.807-1.512-1.411-2.318-1.915c-2.52-1.512-4.737-1.008-5.745,1.008
	c-0.202-0.101-0.403-0.303-0.504-0.403c-2.822-1.613-5.14-0.504-5.342,2.52c0,0.202,0,0.303,0,0.504
	c0,0.504,0.101,0.907,0.101,1.411c-3.125-1.008-5.543,0.807-5.543,4.737c0,1.008,0.202,2.117,0.504,3.225
	c-1.512,0.202-2.52,1.512-2.52,3.729c0,3.326,2.217,7.257,5.04,9.071c0.101,0.101,0.202,0.202,0.403,0.202
	c0.101,0.101,0.201,0.101,0.302,0.202c1.31,0.706,2.52,0.706,3.427,0.302c0.403,0.403,0.806,0.706,1.31,1.008
	c0.101,0.101,0.202,0.101,0.403,0.202c0.101,0.101,0.202,0.101,0.302,0.202c1.109,0.605,2.117,0.706,2.923,0.504
	c1.209,1.411,2.52,2.621,3.931,3.628c0.201,0.101,0.403,0.302,0.604,0.403c0.202,0.101,0.403,0.202,0.605,0.302
	c3.628,1.814,6.652,1.109,8.164-1.713h0.101c0.202,0.101,0.403,0.302,0.604,0.403c0.202,0.101,0.403,0.201,0.605,0.302
	c2.52,1.31,4.737,1.31,6.451,0.302c0.706,0.706,1.411,1.311,2.116,1.713c0.202,0.101,0.303,0.202,0.504,0.302
	c0.202,0.101,0.303,0.202,0.403,0.202c3.628,1.814,6.451,0.403,6.854-3.427c1.008,0.202,1.814,0.101,2.52-0.302
	c0.101,0.604,0.202,1.31,0.202,1.915c0,0.302,0,0.504-0.101,0.806c-0.101,1.512-0.706,2.621-1.512,3.326
	c1.411,3.023,2.217,6.148,2.318,9.071c0,0.202,0,0.303,0,0.504c0,6.249-3.528,9.575-8.466,8.668c-0.202,2.117-0.907,3.83-2.016,5.04
	c-1.411,1.613-3.527,2.318-5.946,2.016c-1.209-0.202-2.419-0.504-3.729-1.21c-0.202-0.101-0.504-0.302-0.706-0.403
	c-0.302-0.202-0.504-0.302-0.806-0.504c-0.101-0.101-0.202-0.202-0.403-0.202c-1.108-0.806-2.217-1.713-3.225-2.721
	c-2.721,1.814-6.551,1.713-10.885-0.403c-0.302-0.202-0.706-0.302-1.008-0.504c-0.403-0.202-0.706-0.403-1.008-0.605l-0.101-0.101
	c-2.419,4.636-7.66,5.947-13.808,2.822c-0.302-0.202-0.706-0.303-1.008-0.504c-0.302-0.202-0.706-0.403-1.008-0.605
	c-2.419-1.613-4.737-3.729-6.753-6.148c-1.008,0.302-2.117,0.201-3.326-0.101c-0.504-0.202-1.109-0.403-1.613-0.706
	c-0.201-0.101-0.403-0.201-0.504-0.302c-0.202-0.101-0.403-0.202-0.604-0.403c-0.807-0.504-1.512-1.108-2.217-1.814
	c-1.512,0.806-3.528,0.706-5.745-0.403c-0.202-0.101-0.403-0.202-0.504-0.302c-0.202-0.101-0.403-0.202-0.605-0.403
	c-4.737-3.125-8.567-9.776-8.567-15.32c0-3.729,1.713-6.047,4.334-6.35c-0.504-1.915-0.807-3.729-0.807-5.543
	c0-6.551,4.032-9.676,9.374-7.962c-0.202-0.807-0.202-1.613-0.202-2.419c0-0.101,0-0.202,0-0.202
	c0.101-2.52,0.907-4.334,2.218-5.342c1.612-1.209,3.931-1.209,6.551,0.202c0.101,0.101,0.201,0.101,0.302,0.201
	c0.302,0.202,0.604,0.403,0.907,0.605c0.403-0.706,0.806-1.31,1.411-1.814c0.504-0.504,1.109-0.807,1.814-1.008
	c1.713-0.504,3.729-0.202,5.947,0.907c0.201,0.101,0.403,0.202,0.504,0.302c0.302,0.202,0.504,0.303,0.806,0.504
	c0.504-0.806,1.209-1.209,2.117-1.31c-0.403-1.209-0.605-2.52-0.605-3.628c0-4.334,2.621-6.451,6.249-5.241
	c-0.101-0.604-0.202-1.108-0.202-1.612c0-3.83,2.722-5.342,6.047-3.427c0.202,0.101,0.403,0.201,0.605,0.403
	c1.108-2.217,3.527-2.721,6.45-1.109c0.907,0.504,1.814,1.21,2.621,2.117c0.605-1.814,2.217-2.621,4.132-2.016v-16.529
	c0.907,1.915,2.318,3.729,3.931,4.838c0.101,0.101,0.201,0.202,0.403,0.202c0.101,0.101,0.202,0.101,0.303,0.201
	c1.31,0.706,2.52,0.706,3.427,0.303c0.403,0.403,0.907,0.806,1.31,1.108c0.101,0.101,0.202,0.101,0.403,0.202
	c0.101,0.101,0.202,0.101,0.302,0.202c1.109,0.604,2.117,0.706,2.923,0.504c1.209,1.411,2.52,2.621,4.032,3.628
	c0.202,0.101,0.403,0.302,0.604,0.403c0.202,0.101,0.303,0.201,0.504,0.302c0,0,0,0,0.101,0c3.628,1.814,6.753,1.108,8.164-1.713
	l0.101,0.101c0.202,0.101,0.403,0.302,0.605,0.403c0.201,0.101,0.403,0.202,0.604,0.302c2.52,1.311,4.737,1.311,6.451,0.302
	c0.706,0.706,1.411,1.209,2.117,1.713c0.201,0.101,0.302,0.202,0.504,0.303c0.201,0.101,0.302,0.201,0.504,0.201
	c3.527,1.814,6.45,0.403,6.854-3.427c1.209,0.202,2.318,0,3.125-0.604c1.209-0.807,1.915-2.419,1.915-4.536
	c0-1.814-0.504-3.83-1.311-5.644c0.605-0.504,0.907-1.311,0.907-2.419c0-2.621-1.915-5.846-4.233-7.156
	c-1.209-0.706-2.318-0.706-3.024-0.202c-0.202,0.101-0.302,0.202-0.403,0.403c-1.209-2.822-3.326-5.342-5.745-6.753
	c-2.621-1.512-4.838-1.109-6.047,0.605c-0.907-1.613-2.217-3.125-3.729-3.931c-2.318-1.31-4.233-0.706-4.838,1.209
	c-0.706-0.706-1.512-1.411-2.318-1.814c-2.52-1.512-4.737-1.008-5.745,1.008c-0.202-0.101-0.403-0.202-0.504-0.302
	c-3.024-1.713-5.342-0.403-5.342,3.023c0,0.504,0.101,1.008,0.101,1.411c-3.125-1.008-5.543,0.806-5.543,4.737
	c0,1.008,0.202,2.116,0.504,3.225c-0.806,0.101-1.411,0.504-1.814,1.109c-0.403,0.604-0.706,1.512-0.706,2.62
	c0,1.109,0.302,2.318,0.706,3.528l-15.421-8.87c0.202-0.604,0.302-1.31,0.302-2.116c0-5.04-3.628-11.289-8.063-13.809
	c-2.822-1.612-5.241-1.411-6.753,0.303c-1.31-2.822-3.023-5.543-5.04-7.962l4.939-2.822V69.847c0.706,0.706,1.512,1.411,2.318,1.915
	c0.202,0.101,0.403,0.202,0.504,0.302c0.202,0.101,0.303,0.202,0.504,0.302c3.226,1.613,5.947,0.907,7.156-1.512l0.101,0.101
	c0.202,0.101,0.403,0.201,0.504,0.302c0.202,0.101,0.403,0.202,0.504,0.302c2.217,1.109,4.233,1.109,5.644,0.202
	c0.604,0.604,1.209,1.109,1.915,1.512c0.101,0.101,0.302,0.202,0.403,0.302c0.101,0.101,0.302,0.101,0.403,0.202
	c3.125,1.613,5.745,0.302,6.148-3.023c2.52,0.504,4.435-1.209,4.435-4.536c0-1.613-0.504-3.326-1.209-5.04
	c0.504-0.403,0.806-1.209,0.806-2.217c0-2.318-1.612-5.14-3.729-6.35c-1.311-0.706-2.419-0.605-3.125,0.101
	c-1.109-2.419-2.923-4.737-5.04-5.946c-2.318-1.311-4.334-1.008-5.342,0.504c-0.806-1.411-1.915-2.722-3.225-3.427
	c-2.016-1.209-3.729-0.706-4.334,1.109c-0.605-0.706-1.311-1.209-2.016-1.613c-0.907-0.504-1.814-0.806-2.62-0.706
	c3.628-4.636,10.18-5.342,17.638-1.008c0.706,0.403,1.411,0.807,2.016,1.311c3.729-7.56,12.296-9.475,22.174-3.729
	c3.225,1.814,6.249,4.334,9.071,7.156c2.52-7.66,10.079-9.979,18.848-4.838c5.644,3.225,10.583,8.769,14.211,15.118
	c4.536-6.854,13.304-8.265,23.383-2.419c9.07,5.241,17.134,15.119,21.972,25.903c2.923-3.427,7.861-3.83,13.506-0.605
	c3.729,2.217,7.257,5.644,9.979,9.676c1.915-0.504,4.233,0,6.753,1.411c4.031,2.318,7.458,6.652,9.575,11.389
	c1.31-1.512,3.427-1.713,5.946-0.302c3.931,2.217,7.055,7.761,7.055,12.195C371.107,115.605,370.502,117.017,369.494,117.924z
	 M292.491,86.981c0-2.016-0.604-4.233-1.512-6.35c0.604-0.605,1.008-1.512,1.008-2.822c0-3.024-2.117-6.551-4.636-8.063
	c-1.613-0.907-3.125-0.806-3.931,0.202c-1.411-3.125-3.729-6.047-6.35-7.559c-2.923-1.713-5.543-1.31-6.753,0.706
	c-1.108-1.814-2.52-3.427-4.132-4.435c-2.52-1.512-4.737-0.807-5.543,1.411c-0.806-0.806-1.713-1.512-2.621-2.116
	c-2.923-1.713-5.342-1.109-6.45,1.108c-0.202-0.201-0.403-0.302-0.605-0.403c-3.326-1.915-6.047-0.403-6.047,3.427
	c0,0.504,0.101,1.108,0.202,1.613c-2.217-0.706-4.032-0.202-5.14,1.31l-3.226-1.915l-20.359,11.691v16.026
	c0.605,0.101,1.209,0.403,1.814,0.705c0.202,0.101,0.403,0.303,0.604,0.403c1.109-2.217,3.628-2.721,6.451-1.108
	c0.907,0.504,1.814,1.209,2.621,2.116c0.706-2.217,2.923-2.923,5.543-1.411c1.31,0.807,2.52,1.915,3.427,3.326
	c0.202,0.303,0.504,0.706,0.706,1.008c1.209-1.915,3.628-2.318,6.35-0.907c0.101,0.101,0.302,0.101,0.403,0.202
	c1.512,0.907,2.923,2.217,4.132,3.83c0.706,1.008,1.411,2.016,1.915,3.125l6.652-3.83v-4.233c0.101,0.101,0.302,0.202,0.403,0.302
	c0.202,0.101,0.403,0.303,0.604,0.403c4.032,2.016,7.458,1.209,9.172-1.915l0.101,0.101c0.202,0.202,0.504,0.303,0.706,0.403
	s0.403,0.202,0.706,0.302c2.822,1.411,5.342,1.512,7.156,0.303c0.706,0.706,1.512,1.411,2.318,1.915
	c0.202,0.101,0.403,0.202,0.504,0.303c0.202,0.101,0.302,0.202,0.504,0.302c4.032,2.016,7.257,0.403,7.761-3.83
	C290.173,93.331,292.491,91.214,292.491,86.981z M266.286,261.448c6.249,1.915,8.567-4.939,8.567-4.939
	C273.14,254.594,266.084,256.106,266.286,261.448z M309.223,223.047c0-2.016-0.605-4.233-1.513-6.35
	c0.605-0.504,1.009-1.512,1.009-2.721c0-3.023-2.117-6.551-4.738-8.063c-1.611-0.907-3.124-0.807-3.93,0.202
	c-1.411-3.125-3.729-5.947-6.35-7.458c-0.403-0.202-0.706-0.403-1.008-0.504v3.023l-28.725,16.53l-0.403-0.202v5.14
	c0,0.504,0,1.008,0,1.512c0.403,0.403,0.907,0.807,1.411,1.109c0.101,0.101,0.302,0.202,0.403,0.202
	c0.101,0.101,0.202,0.101,0.403,0.202c1.209,0.604,2.318,0.806,3.326,0.504c1.311,1.612,2.822,3.023,4.435,4.031
	c0.201,0.202,0.504,0.303,0.705,0.403c0.202,0.101,0.403,0.202,0.706,0.302c4.032,2.117,7.458,1.209,9.071-1.915l0.101,0.101
	c0.202,0.101,0.504,0.302,0.706,0.403c0.202,0.101,0.403,0.303,0.605,0.403c2.822,1.411,5.342,1.411,7.156,0.302
	c0.807,0.807,1.512,1.411,2.419,1.915c0.202,0.101,0.303,0.202,0.504,0.303c0.202,0.101,0.403,0.201,0.504,0.302
	c4.031,2.016,7.256,0.403,7.76-3.83C306.904,229.397,309.223,227.28,309.223,223.047z M228.893,362.641
	c1.008,6.047,7.66,4.939,7.66,4.939C237.46,365.361,233.227,360.121,228.893,362.641z"></path>
<path id="color_x5F_10" fill="#D0E7DF" d="M222.241,220.023c1.311,0.706,2.52,1.008,3.729,1.209v27.516l-17.94,10.381
	c-0.101-1.008-0.101-1.713-0.101-1.713c0.101,0,0.202,0.101,0.202,0.101c-0.101-0.806-0.101-1.31-0.101-1.31s0,0-0.101-0.101
	c0,0,0.202-1.411,0.302-1.512c0.101-0.202,2.923-6.148,2.923-6.551c0-0.202-0.201-0.403-0.403-0.302
	c-0.403,0.302-1.311,1.108-1.613,1.31c0,0,2.117-3.125,1.713-3.628c-0.504-0.504-2.923,3.125-2.923,3.125s1.915-4.334,1.512-4.838
	c-0.101-0.101-0.201-0.302-0.604,0.101c-0.807,1.008-2.318,3.628-2.52,3.931c0.202-0.403,2.218-3.83,1.311-4.435
	c-1.008-0.604-3.83,6.552-3.83,6.552s0.101-1.512-0.403-2.117c-0.504-0.706-1.008-0.202-1.008-0.202s0.101,1.713-0.302,2.419
	c-0.302,0.706-0.403,3.326-0.302,4.132c0.201,0.806,0.403,2.117,0.403,2.117l0.101,2.117l-0.202,4.132l-4.838,2.822l-0.101-33.16
	l0.101,0.101l23.081-13.304c0.101,0.101,0.202,0.201,0.403,0.201c0.302,0.202,0.504,0.303,0.806,0.504
	C221.737,219.822,222.04,219.923,222.241,220.023z M161.062,144.331c-0.202-0.101-0.302-0.202-0.504-0.302l-0.101-0.101
	c-2.721,5.241-8.668,6.753-15.623,3.226c-0.403-0.202-0.706-0.403-1.108-0.605c-0.403-0.202-0.706-0.403-1.109-0.706l0.101,28.625
	l19.553-11.289l-1.31-0.806v-18.042H161.062z M91.618,210.146l0.101,33.16l28.725-16.529v-33.16l-28.725,16.529H91.618z
	 M165.799,80.934L165.799,80.934l-0.101-0.101v12.095c2.218-3.427,6.552-4.031,11.591-1.209c2.117,1.209,4.032,2.923,5.846,4.938
	l4.938-2.822V69.646c-0.302-0.302-0.605-0.706-0.907-1.008L165.799,80.934z M321.821,131.228l4.232-2.419v-11.087l11.188-6.451
	v11.087l4.232-2.419l-8.566,13.506c1.41,0.202,2.923,0.806,4.535,1.713c0.604,0.302,1.108,0.706,1.612,1.008l5.745-3.326v-15.32
	v-1.411V99.782l-28.624,16.529v11.49c0.807,0.202,1.714,0.604,2.62,1.108C319.805,129.515,320.813,130.321,321.821,131.228z
	 M325.752,136.368c0.705-1.008,1.512-1.814,2.62-2.318l-6.45-2.721C323.333,132.74,324.744,134.453,325.752,136.368z
	 M198.656,150.58c0-3.83,2.721-5.342,6.047-3.427c0.202,0.101,0.403,0.202,0.604,0.403c1.109-2.217,3.528-2.721,6.451-1.108
	c0.907,0.504,1.814,1.209,2.621,2.116c0.604-1.814,2.217-2.62,4.132-2.016v-16.529c-0.101-0.101-0.101-0.302-0.202-0.403
	l-28.523,16.429l-0.101-0.101v15.723c0.202,0.101,0.403,0.202,0.504,0.302c0.302,0.202,0.504,0.302,0.806,0.504
	c0.504-0.806,1.209-1.209,2.117-1.31c-0.403-1.209-0.605-2.52-0.605-3.628c0-4.334,2.621-6.451,6.249-5.241
	C198.656,151.587,198.656,151.083,198.656,150.58z M236.754,95.044c0.202,0.302,0.504,0.706,0.706,1.008
	c1.209-1.915,3.628-2.318,6.35-0.907v-7.358l7.861-4.536v7.761l3.024-1.713l-6.249,9.877c0.706,1.008,1.411,2.016,1.915,3.125
	l6.652-3.83v-4.233V74.987l-20.259,11.692V95.044z M292.693,198.051v-15.118v-0.504c-1.008-0.101-2.016-0.504-3.226-1.008
	c-0.201-0.101-0.403-0.201-0.604-0.302c-0.202-0.101-0.504-0.302-0.706-0.403c-0.907-0.605-1.713-1.209-2.52-2.016
	c-1.714,0.907-4.032,0.807-6.552-0.504c-0.201-0.101-0.403-0.202-0.604-0.302s-0.403-0.302-0.706-0.403
	c-0.302-0.201-0.504-0.302-0.706-0.504l-13.103,7.559l-0.101-0.101l0.101,33.16l28.725-16.529V198.051L292.693,198.051z
	 M416.664,435.713l4.132,2.419l-34.57,19.956l-87.889-50.798l-3.729,2.117l-0.101-36.788l0.101,0.101l31.749-18.344v4.636v8.87
	l-0.705-0.403l-9.071,5.241v7.962l-8.063,4.637v16.025l-1.008,0.604l-5.04,2.923l1.412,0.807l4.636-2.722v1.915l-3.023,1.714
	l8.668,4.938l0,0l1.713,1.008l0,0l8.668,4.938l1.714,1.009l8.668,4.938l1.713,1.008l8.668,4.938l5.04-2.923l-4.838-2.822
	l-3.024-1.713l-0.806-0.403l-1.613-1.008l-6.249-3.629l-5.039,2.923l-0.101-23.08h0.101l19.956-11.49l-13.808-7.962V383
	l-9.071,5.241v-10.382l0,0l9.071-5.24v1.311l76.802,44.347v4.838l-5.544-3.226l-5.039,2.924l8.668,4.938l1.915-1.109v1.915
	l-0.303,0.102l0.303,0.101v1.915l-1.915-1.109l-5.04,2.924l8.668,4.938L416.664,435.713z M399.328,423.921l-5.039,2.923l8.668,4.938
	l5.039-2.923L399.328,423.921z M372.417,423.114l12.901-7.458l-13.002-7.459l-0.201,0.102l-3.729-2.218l-5.04,2.923l3.729,2.218
	l-1.713,1.008l-3.729-2.218l-5.039,2.923l3.729,2.218l-1.008,0.604v0.807l-4.435-2.621l-5.039,2.923l8.667,4.938l0.907-0.504v2.923
	l-0.907-0.504l-5.039,2.923l5.946,3.427v0.605l13.002,7.458V423.114L372.417,423.114z M361.633,407.996l5.039-2.923l-8.668-4.938
	l-5.039,2.923L361.633,407.996z M387.334,417.067l-1.915-1.109v2.218L387.334,417.067z M385.419,419.99v1.713l7.156,4.133
	l5.039-2.923l-8.667-4.938L385.419,419.99z M381.992,425.836v-5.04l-5.039,2.923v4.939l-1.915,1.108l4.435,1.915l4.435-6.955
	L381.992,425.836z M374.03,438.435l8.668,4.938l5.039-2.923l-8.668-4.938L374.03,438.435z M389.451,439.543l5.039-2.923
	l-8.668-4.938l-5.039,2.923L389.451,439.543z M396.103,435.713l5.04-2.923l-8.668-4.938l-3.125-1.814l-4.031-2.318v5.847
	l0.403,0.201l1.713,0.907L396.103,435.713z M395.699,414.043l-5.039,2.923l8.668,4.939l5.039-2.923L395.699,414.043z
	 M385.419,408.097l-5.039,2.923l8.668,4.938l5.039-2.923L385.419,408.097z M375.139,402.251l-5.039,2.923l8.667,4.938l5.04-2.923
	L375.139,402.251z M364.858,396.305l-5.04,2.923l8.668,4.938l5.04-2.923L364.858,396.305z M354.477,390.357l-5.039,2.924
	l8.668,4.938l5.039-2.923L354.477,390.357z M348.53,391.869l4.334-2.52l-4.334-2.52V391.869z M348.53,400.437l2.822,1.613
	l5.039-2.923l-7.861-4.536V400.437z M348.53,403.763l1.209-0.705l-1.209-0.706V403.763z M348.53,408.197l6.45,3.729l5.04-2.923
	l-8.668-4.938l-2.822,1.612V408.197z M341.979,412.229l6.249,3.628l5.04-2.923l-6.249-3.628L341.979,412.229z M346.615,416.765
	l-6.249-3.628l-5.039,2.923l6.249,3.628L346.615,416.765z M351.856,425.634l5.039-2.923l-8.668-4.938l-5.039,2.923L351.856,425.634z
	 M355.384,435.411l5.04-2.923l-8.668-4.939l-5.04,2.923L355.384,435.411z M365.664,441.357l5.04-2.923l-8.668-4.938l-5.04,2.923
	L365.664,441.357z M375.945,447.304l5.039-2.923l-8.668-4.938l-5.039,2.923L375.945,447.304z M391.365,450.327l-8.667-4.938
	l-5.04,2.923l8.668,4.938L391.365,450.327z M398.018,446.498l-8.668-4.939l-5.039,2.923l8.668,4.939L398.018,446.498z
	 M404.771,442.566l-8.668-4.938l-5.039,2.923l8.668,4.938L404.771,442.566z M411.523,438.736l-8.668-4.938l-5.039,2.923l8.668,4.939
	L411.523,438.736z M424.425,425.231L424.425,425.231v15.018l13.002-7.459v-9.575v-5.442L424.425,425.231z M335.528,435.31
	l-26.81-15.521c-0.504-0.302-1.21-0.302-1.714,0l-17.84,10.281c-0.604,0.302-0.604,1.209,0,1.512l26.911,15.521
	c0.504,0.302,1.209,0.302,1.713,0l17.84-10.28C336.133,436.52,336.133,435.713,335.528,435.31z"></path>
<path id="color_x5F_9" fill="#E4672D" d="M182.126,258.122l-0.201-1.613l1.814,1.008
	C182.933,257.82,182.228,258.122,182.126,258.122L182.126,258.122z M183.84,381.59c0,0-3.427,1.008-6.551,1.611l-2.016,3.932
	c0,0-2.217,0.604-4.435,0c-1.915-0.504-2.722-2.419-2.822-2.924c-1.109,2.924-1.713,7.156,0.101,7.762
	c0.807,0.303,2.117,0.504,3.931-0.102c3.427-1.108,4.938-2.116,4.938-2.116s4.536-0.302,6.955-2.317
	c2.318-1.916,2.117-3.83,1.613-5.04S183.84,381.59,183.84,381.59z M443.474,333.311v83.958l-113.086-65.715V268.1L443.474,333.311z
	 M354.88,341.475l9.071-3.83l3.023-1.209l1.512-0.605l-7.257-4.132v-2.016v-0.706v-2.62v-0.403v-1.814v-3.023v-7.761v-0.706
	l-1.915-1.107l-0.403-0.202l-6.047-3.528l-7.963-4.636l-2.721-1.612v0.705v2.419v9.272v4.535v2.017l-5.645-3.226l-1.612-0.906
	l0.806,1.31l3.226,5.14l0.403,0.605l6.954,10.986l0.202,0.302l1.209,1.915l0.706,1.109l0.806,1.209l2.218,3.527l0.303,0.403
	l0.302-0.101l2.218-0.907L354.88,341.475z M415.354,388.947l-22.979-13.204l-0.303-0.201l-0.504-0.303l-0.202-0.101l-0.302-0.201
	l-0.504-0.303l-0.101-0.102l-0.403-0.302l-0.504-0.302l-0.101-0.102l-0.605-0.303l-0.101-0.1l-0.504-0.303l-0.303-0.201
	l-0.302-0.202l-0.504-0.302l-0.202-0.102l-0.504-0.303l-0.705-0.402l-0.202-0.102l-0.504-0.302l-0.302-0.202l-0.403-0.201
	l-0.504-0.303l-0.101-0.101l-0.605-0.403L383,369.897l-0.504-0.302l-0.403-0.303l-0.101-0.102l-0.504-0.302l-0.303-0.202l-0.201-0.1
	l-0.504-0.303l-0.303-0.201l-22.979-13.204v2.419c21.568,12.498,13.707,7.963,35.276,20.461v-0.102
	c7.156,4.133,7.357,4.233,22.979,13.305v-2.016H415.354z M415.354,380.48l-22.979-13.203l-0.303-0.202l-0.504-0.302l-0.202-0.102
	l-0.302-0.201l-0.504-0.303l-0.101-0.101l-0.403-0.302l-0.504-0.303l-0.101-0.102l-0.605-0.402l-0.101-0.102l-0.504-0.302
	l-0.303-0.202l-0.302-0.201l-0.504-0.303l-0.202-0.1l-0.504-0.303l-0.705-0.403l-0.202-0.101l-0.504-0.303l-0.302-0.201
	l-0.403-0.202l-0.504-0.302l-0.101-0.102H383l-0.101-0.101l-0.504-0.302l-0.403-0.303l-0.101-0.101l-0.504-0.303l-0.303-0.202
	l-0.201-0.1l-0.504-0.303l-0.303-0.201l-22.979-13.204v2.419c21.568,12.498,13.707,7.963,35.276,20.561v-0.1
	c7.155,4.132,7.357,4.232,22.979,13.304V380.48z M415.354,369.998v-9.475c-21.468-12.396-13.808-7.962-35.276-20.359v9.374
	C401.646,361.936,393.785,357.399,415.354,369.998z M415.354,354.678v-9.474c-21.468-12.397-13.808-7.962-35.276-20.359v9.374
	C401.646,346.716,393.785,342.181,415.354,354.678z M415.354,339.358v-9.474c-21.468-12.398-13.808-7.963-35.276-20.36v9.374
	C401.646,331.396,393.785,326.86,415.354,339.358z M190.089,292.189c-0.302-0.202-0.706-0.403-1.108-0.504
	c-0.101,0-0.303-0.101-0.403-0.101c-1.411-0.101-8.87,2.318-8.87,2.318l0,0c0,0.101-1.008,2.016-1.008,2.318
	c0,0.303,1.209,1.311,1.411,1.311c0.101,0,3.931-3.226,7.257-3.83c3.326-0.504,3.628-0.806,3.628-0.806
	S190.694,292.491,190.089,292.189z M209.138,394.289c0,0-8.668-0.102-10.885-1.613l0,0c-0.101,0.705-0.202,1.512-0.302,2.218
	c-1.915,1.612-5.644,1.209-7.257-0.604l0,0l-0.403,4.232c0,0,1.008,1.915,4.536,1.915s5.342-0.604,5.342-0.604
	s4.435,1.108,7.357-0.101c2.822-1.108,3.226-3.023,3.125-4.233C210.449,394.289,209.138,394.289,209.138,394.289z M204.401,257.315
	L204.401,257.315c0.101,0,0.101,0,0.101,0c0.101,0,0.101,0,0.202,0h0.101c0.101,0,0.202,0,0.302,0h0.101c0.101,0,0.202,0,0.302,0
	c0.101,0,0.101,0,0.202,0s0.202,0,0.302,0c0.101,0,0.202,0,0.303,0c0.101,0,0.101,0,0.201,0c0.101,0,0.303,0,0.403,0h0.101
	c0.101,0,0.303,0.101,0.403,0.101h0.101c0.101,0,0.101,0,0.201,0.101c0.101,0,0.202,0.101,0.202,0.101
	c-0.101-0.807-0.101-1.311-0.101-1.311s0,0-0.101-0.101l0,0l-0.101-0.101c-0.202-0.201-0.605-0.403-1.008-0.604l0,0
	c-0.101-0.101-0.202-0.101-0.303-0.202h-0.101c-0.101,0-0.202-0.101-0.302-0.101h-0.101c-0.101,0-0.201-0.101-0.302-0.101
	c-0.907-0.101-3.427,1.311-3.427,1.311l0.101,2.116L204.401,257.315z"></path>
<path id="color_x5F_8" fill="#02EDB0" d="M457.383,405.375c-0.907,0.605-1.814,1.21-2.923,1.613v-16.228
	c3.729-1.31,7.357-3.527,9.172-5.946c0.303-0.403,0.604-0.807,0.807-1.109c0.806,3.024,0.907,6.25-0.202,9.878l-0.201,0.504
	c-1.311,3.427-2.52,6.652-4.233,8.869c-0.504,0.605-0.907,1.109-1.512,1.613C457.786,405.073,457.383,405.375,457.383,405.375z
	 M473.509,378.768c1.008-0.706,2.017-1.21,3.024-1.512c-0.605,0-1.21,0-2.017,0.201c-4.838,0.705-6.753,2.116-8.869,4.736
	c0.504,1.613,0.706,3.528,0.807,5.947C468.167,384.411,470.284,381.085,473.509,378.768z M510.398,354.678
	c-5.241,0.202-9.475,1.714-12.599,3.528c-0.504,0.302-0.907,0.604-1.411,0.907c6.047,8.265-4.637,15.018-4.637,15.018
	s1.411,0.906,0.101,3.023c0,0,0,0,0,0.102c2.218-0.202,4.133-0.908,5.745-2.822c1.714-2.117,2.621-3.932,3.528-5.544
	c3.729-7.257,6.854-7.56,14.514-7.861c-5.745,1.108-9.575,1.31-13.204,8.567c-0.806,1.612-1.814,3.527-3.628,5.846
	c-1.613,1.914-3.427,2.822-5.443,3.225c5.141,3.428,7.762,2.419,13.104,1.311c-5.241,3.83-10.181,3.023-15.32-1.209
	c-0.202,0-0.303,0-0.504,0c-1.512,1.41-3.729,2.317-7.156,1.813c-2.62-0.403-3.124-1.612-4.133-2.52
	c-1.713,0.202-3.427,0.706-4.938,1.813c-4.535,3.227-6.854,8.87-8.769,14.212c-0.201,0.504-0.403,1.008-0.604,1.512
	c-1.008,2.52-1.915,4.838-3.125,6.854c7.358-3.527,14.01-1.108,18.143,5.745c-4.031-5.241-11.49-9.575-20.763-2.52
	c-1.612,1.411-3.124,2.419-4.737,3.023v3.326c0.706-0.201,1.21-0.403,1.714-0.705c3.527-2.016,4.838-2.923,9.373-1.814
	c4.435,1.209,2.116,2.923,4.938,4.637c2.822,1.813,5.04,1.31,6.552,0.201s0.806-2.016,0.806-2.016s9.071-1.411,7.358-8.567
	c-1.714-7.156-11.894-8.668-11.894-8.668c3.023-2.116,13.305-3.023,14.917-4.737c1.612-1.612-0.807-4.535-0.807-4.535
	c3.931,4.838,18.848,5.543,22.477-0.101c3.628-5.544-1.714-11.994-1.714-11.994s8.668-4.536,10.684-7.66
	C520.779,363.145,523.198,354.275,510.398,354.678z M174.971,60.474c0.706,2.217,2.217,4.435,4.031,5.645
	c0.101,0.101,0.202,0.101,0.303,0.201c0.101,0.101,0.202,0.101,0.302,0.202c1.209,0.605,2.217,0.605,3.024,0.202
	c0.403,0.403,0.806,0.706,1.209,0.907c0.101,0.101,0.201,0.101,0.302,0.202c0.101,0.101,0.202,0.101,0.302,0.201
	c1.008,0.504,1.814,0.605,2.621,0.403c0.101,0.101,0.101,0.202,0.202,0.202c0.302,0.403,0.604,0.706,0.907,1.008
	c0.706,0.706,1.512,1.411,2.318,1.915c0.202,0.101,0.403,0.202,0.504,0.302c0.202,0.101,0.302,0.202,0.504,0.302
	c3.226,1.613,5.947,0.907,7.156-1.512l0.101,0.101c0.202,0.101,0.403,0.202,0.504,0.302c0.202,0.101,0.403,0.202,0.504,0.302
	c2.218,1.109,4.233,1.109,5.645,0.202c0.604,0.604,1.209,1.109,1.915,1.512c0.101,0.101,0.302,0.202,0.403,0.303
	c0.101,0.101,0.303,0.101,0.403,0.201c3.125,1.613,5.745,0.303,6.148-3.023c2.52,0.504,4.435-1.209,4.435-4.536
	c0-1.613-0.504-3.326-1.209-5.04c0.504-0.403,0.806-1.209,0.806-2.217c0-2.318-1.613-5.14-3.729-6.35
	c-1.311-0.706-2.419-0.605-3.125,0.101c-1.109-2.419-2.923-4.737-5.04-5.946c-2.318-1.311-4.334-1.008-5.342,0.504
	c-0.807-1.411-1.915-2.722-3.226-3.427c-2.016-1.209-3.729-0.705-4.333,1.109c-0.605-0.706-1.311-1.209-2.016-1.613
	c-0.907-0.504-1.814-0.806-2.621-0.705c-1.108,0-1.915,0.604-2.419,1.612c-0.201-0.101-0.302-0.202-0.504-0.302
	c-2.621-1.512-4.737-0.302-4.737,2.721c0,0.403,0,0.807,0.101,1.311c-2.822-0.907-4.838,0.705-4.838,4.132
	c0,0.907,0.202,1.915,0.403,2.923c-1.311,0.202-2.217,1.411-2.217,3.326c0,0.202,0,0.403,0,0.504
	C174.668,59.264,174.769,59.869,174.971,60.474z M202.99,118.125c0-5.04-3.628-11.289-8.063-13.808
	c-2.822-1.613-5.241-1.411-6.753,0.302c-1.31-2.822-3.023-5.543-5.039-7.962c-1.714-2.016-3.729-3.729-5.846-4.939
	c-5.039-2.923-9.373-2.217-11.591,1.209l0,0c-1.814-3.124-4.333-5.946-7.055-7.458c-0.202-0.101-0.403-0.202-0.604-0.303
	c-4.132-2.016-7.56-0.806-8.769,2.722c-0.504-0.504-0.907-0.907-1.411-1.311c-1.008-0.907-2.016-1.612-3.125-2.217
	c-0.403-0.302-0.907-0.504-1.311-0.706c-4.334-2.016-7.962-0.907-9.676,2.52c-0.302-0.201-0.706-0.403-1.008-0.604
	c-5.745-3.326-10.28-0.706-10.28,5.846c0,0.907,0.101,1.814,0.302,2.721c-6.047-1.915-10.583,1.613-10.583,8.97
	c0,2.016,0.302,4.133,0.907,6.249c-2.923,0.403-4.838,3.024-4.838,7.257c0,4.737,2.52,10.281,6.047,14.211
	c1.108,1.209,2.318,2.318,3.628,3.125c0.202,0.101,0.504,0.302,0.706,0.403c0.202,0.101,0.403,0.202,0.604,0.302
	c2.52,1.31,4.838,1.411,6.551,0.504c0.807,0.806,1.613,1.411,2.52,2.016c0.202,0.101,0.403,0.302,0.706,0.403
	c0.201,0.101,0.403,0.202,0.604,0.302c2.117,1.109,4.032,1.311,5.645,0.907c2.318,2.822,4.838,5.14,7.66,6.955c0,0,0,0,0.101,0
	c0.403,0.202,0.706,0.504,1.108,0.706c0.403,0.202,0.706,0.403,1.109,0.604c6.955,3.528,12.8,2.016,15.622-3.225l0.101,0.101
	c0.101,0.101,0.302,0.202,0.504,0.303v-14.917l28.725-16.53l12.901,7.458C202.889,119.637,202.99,118.932,202.99,118.125z
	 M242.5,179.305c0.605-0.504,0.907-1.311,0.907-2.419c0-1.915-1.008-4.132-2.419-5.645c-0.504-0.604-1.109-1.108-1.814-1.512
	s-1.31-0.504-1.814-0.604c-0.706,0-1.311,0.201-1.713,0.705c-0.101-0.302-0.302-0.604-0.403-0.907
	c-1.31-2.419-3.125-4.636-5.241-5.846c-2.621-1.512-4.838-1.109-6.048,0.604c-0.907-1.613-2.217-3.125-3.729-3.931
	c-2.318-1.31-4.233-0.706-4.838,1.31c-0.706-0.806-1.512-1.411-2.318-1.915c-2.52-1.512-4.737-1.008-5.745,1.008
	c-0.202-0.101-0.403-0.302-0.504-0.403c-2.822-1.613-5.141-0.504-5.342,2.52c0,0.202,0,0.302,0,0.504
	c0,0.504,0.101,0.907,0.101,1.411c-3.125-1.008-5.543,0.806-5.543,4.737c0,1.008,0.202,2.117,0.504,3.225
	c-1.512,0.202-2.52,1.512-2.52,3.729c0,3.326,2.217,7.257,5.04,9.071c0.101,0.101,0.201,0.202,0.403,0.202
	c0.101,0.101,0.202,0.101,0.302,0.202c1.311,0.706,2.52,0.706,3.427,0.302c0.403,0.403,0.806,0.706,1.31,1.008
	c0.101,0.101,0.202,0.101,0.403,0.202c0.101,0.101,0.201,0.101,0.302,0.202c1.109,0.604,2.117,0.706,2.923,0.504
	c1.209,1.411,2.52,2.621,3.931,3.628c0.202,0.101,0.403,0.302,0.605,0.403c0.202,0.101,0.403,0.201,0.604,0.302
	c3.628,1.814,6.652,1.108,8.164-1.713h0.101c0.202,0.101,0.403,0.302,0.605,0.403c0.202,0.101,0.403,0.202,0.605,0.303
	c2.52,1.31,4.737,1.31,6.45,0.302c0.706,0.706,1.411,1.31,2.117,1.713c0.202,0.101,0.302,0.202,0.504,0.302
	c0.202,0.101,0.302,0.202,0.403,0.202c3.628,1.814,6.45,0.403,6.854-3.427c1.008,0.202,1.814,0.101,2.52-0.302
	c0.101,0,0.101-0.101,0.202-0.101c0.504-0.302,0.907-0.604,1.209-1.108c0.605-0.907,1.008-2.117,1.008-3.628
	c0-1.512-0.403-3.226-1.008-4.838C242.701,179.909,242.601,179.607,242.5,179.305z M275.76,94.037
	c0.706,0.706,1.512,1.411,2.318,1.915c0.202,0.101,0.403,0.202,0.504,0.302c0.202,0.101,0.303,0.202,0.504,0.303
	c4.032,2.016,7.257,0.403,7.761-3.83c3.225,0.604,5.644-1.613,5.644-5.745c0-2.016-0.604-4.233-1.512-6.35
	c0.604-0.605,1.008-1.512,1.008-2.822c0-3.024-2.117-6.551-4.636-8.063c-1.613-0.907-3.125-0.806-3.931,0.202
	c-1.411-3.125-3.729-6.047-6.35-7.559c-2.923-1.713-5.543-1.31-6.753,0.706c-1.108-1.814-2.52-3.427-4.132-4.435
	c-2.52-1.512-4.737-0.807-5.543,1.411c-0.806-0.806-1.713-1.512-2.621-2.116c-2.923-1.713-5.342-1.109-6.45,1.108
	c-0.202-0.201-0.403-0.302-0.605-0.403c-3.326-1.915-6.047-0.403-6.047,3.427c0,0.504,0.101,1.108,0.202,1.613
	c-2.217-0.706-4.032-0.202-5.14,1.31l17.033,9.877v19.25c0.101,0.101,0.302,0.202,0.403,0.303c0.202,0.101,0.403,0.302,0.604,0.403
	c4.032,2.016,7.458,1.209,9.172-1.915l0.101,0.101c0.202,0.202,0.504,0.302,0.706,0.403c0.202,0.101,0.403,0.202,0.706,0.303
	C271.426,95.246,273.946,95.246,275.76,94.037z M363.044,161.565c0-5.039-3.629-11.288-7.963-13.808
	c-2.821-1.613-5.24-1.411-6.753,0.302c0-0.101-0.101-0.101-0.101-0.201c-2.116-4.637-5.342-8.87-9.172-11.591
	c-0.504-0.403-1.108-0.706-1.612-1.008c-1.612-0.907-3.125-1.512-4.535-1.714c-1.714-0.302-3.226-0.101-4.436,0.605
	c-1.008,0.504-1.915,1.31-2.62,2.318c-1.108-1.915-2.419-3.628-3.931-5.04l0,0c-1.008-0.907-2.016-1.814-3.125-2.419
	c-0.906-0.504-1.713-0.907-2.62-1.109c-3.226-0.907-5.745,0.504-6.753,3.528c-1.411-1.411-2.923-2.621-4.535-3.528
	c-4.939-2.822-9.172-1.915-10.986,1.814c-0.303-0.202-0.706-0.504-1.008-0.706c-2.016-1.109-3.931-1.613-5.443-1.311
	c-2.923,0.403-4.838,3.024-4.838,7.257c0,0.907,0.101,1.814,0.302,2.822c-3.83-1.31-7.156-0.202-8.97,2.621
	c2.318,1.613,4.334,4.132,5.543,6.955c0.807-1.008,2.318-1.109,3.931-0.202c2.621,1.512,4.737,5.14,4.737,8.063
	c0,1.311-0.403,2.217-1.008,2.721c1.008,2.117,1.512,4.334,1.512,6.35c0,4.132-2.318,6.35-5.644,5.745
	c-0.504,4.233-3.729,5.846-7.761,3.83c-0.202-0.101-0.303-0.202-0.504-0.302c-0.202-0.101-0.403-0.202-0.504-0.302
	c-0.705-0.504-1.31-1.008-1.915-1.613c1.411,2.117,3.125,3.931,5.039,5.342c0.202,0.202,0.504,0.403,0.706,0.504
	c0.202,0.202,0.403,0.303,0.706,0.403c0.202,0.101,0.403,0.202,0.605,0.302c2.52,1.311,4.838,1.411,6.551,0.504
	c0.806,0.807,1.613,1.411,2.52,2.016c0.202,0.201,0.403,0.302,0.706,0.403c0.202,0.101,0.403,0.202,0.605,0.302
	c1.108,0.605,2.217,0.907,3.225,1.008c0.907,0.101,1.713,0.101,2.419-0.101c0.101,0.101,0.101,0.101,0.202,0.202
	c2.217,2.621,4.737,4.939,7.458,6.753c0.403,0.302,0.807,0.504,1.209,0.706c0.403,0.202,0.706,0.403,1.109,0.604
	c3.023,1.512,5.846,2.117,8.365,1.814c-1.209-0.907-2.419-2.016-3.427-3.326c-0.907,0.303-2.016,0.101-3.326-0.504
	c-0.101-0.101-0.303-0.101-0.403-0.202c-0.101-0.101-0.302-0.202-0.403-0.202c-0.503-0.302-1.007-0.705-1.511-1.209
	c-1.009,0.504-2.318,0.504-3.83-0.303c-0.102-0.101-0.202-0.101-0.404-0.202c-0.101-0.101-0.302-0.201-0.403-0.201
	c-3.225-2.016-5.644-6.551-5.644-10.18c0-2.419,1.109-4.031,2.822-4.233c-0.403-1.209-0.605-2.52-0.605-3.628
	c0-4.334,2.621-6.451,6.25-5.241c-0.102-0.604-0.202-1.108-0.202-1.612c0-3.83,2.722-5.342,6.048-3.427
	c0.201,0.101,0.402,0.202,0.604,0.403c1.108-2.217,3.527-2.721,6.45-1.109c0.907,0.504,1.814,1.21,2.621,2.117
	c0.705-2.217,2.923-2.923,5.442-1.411c1.612,0.907,3.124,2.52,4.132,4.435c1.311-2.016,3.83-2.419,6.753-0.706
	c2.621,1.512,4.939,4.435,6.351,7.559c0.806-1.008,2.317-1.108,3.931-0.202c2.62,1.512,4.636,5.14,4.636,8.063
	c0,1.31-0.403,2.217-1.008,2.822c1.008,2.117,1.512,4.334,1.512,6.35c0,4.132-2.317,6.35-5.644,5.745
	c-0.102,1.109-0.403,2.016-0.907,2.722c5.644,1.612,9.978-1.311,10.684-7.56c5.543,1.008,9.575-2.721,9.575-9.877
	c0-3.528-1.008-7.257-2.621-10.886C362.338,165.295,363.044,163.682,363.044,161.565z M266.891,126.491
	c0-2.621-1.915-5.846-4.233-7.156c-1.209-0.706-2.318-0.706-3.023-0.202c-0.202,0.101-0.302,0.202-0.403,0.403
	c-1.209-2.822-3.326-5.342-5.745-6.752c-2.621-1.512-4.838-1.109-6.047,0.604c-0.907-1.613-2.218-3.125-3.729-3.931
	c-2.318-1.311-4.233-0.706-4.838,1.209c-0.706-0.706-1.512-1.411-2.318-1.814c-2.52-1.512-4.737-1.008-5.745,1.008
	c-0.202-0.101-0.403-0.201-0.504-0.302c-3.024-1.713-5.342-0.403-5.342,3.024c0,0.504,0.101,1.008,0.101,1.411
	c-3.125-1.008-5.543,0.806-5.543,4.737c0,1.008,0.202,2.117,0.504,3.225c-0.806,0.101-1.411,0.504-1.814,1.109
	c-0.403,0.605-0.706,1.512-0.706,2.621c0,1.108,0.302,2.318,0.706,3.527c0,0.101,0.101,0.202,0.101,0.303
	c0.101,0.101,0.101,0.302,0.202,0.403c0.907,1.915,2.318,3.729,3.931,4.838c0.101,0.101,0.202,0.202,0.403,0.202
	c0.101,0.101,0.202,0.101,0.302,0.202c1.31,0.706,2.52,0.706,3.427,0.302c0.403,0.403,0.907,0.807,1.311,1.109
	c0.101,0.101,0.202,0.101,0.403,0.202c0.101,0.101,0.202,0.101,0.303,0.202c1.108,0.604,2.116,0.706,2.923,0.504
	c1.209,1.411,2.52,2.621,4.031,3.628c0.202,0.101,0.403,0.302,0.605,0.403c0.202,0.101,0.302,0.202,0.504,0.303c0,0,0,0,0.101,0
	c3.628,1.814,6.753,1.108,8.164-1.713l0.101,0.101c0.201,0.101,0.403,0.302,0.604,0.403c0.202,0.101,0.403,0.201,0.605,0.302
	c2.52,1.31,4.737,1.31,6.45,0.302c0.706,0.706,1.411,1.209,2.117,1.713c0.202,0.101,0.302,0.202,0.504,0.302
	c0.202,0.101,0.302,0.202,0.504,0.202c3.528,1.814,6.451,0.403,6.854-3.427c1.209,0.202,2.318,0,3.125-0.604
	c1.209-0.807,1.915-2.419,1.915-4.536c0-1.814-0.504-3.83-1.31-5.645C266.487,128.406,266.891,127.6,266.891,126.491z"></path>
<path id="color_x5F_7" fill="#217671" d="M461.717,376.55c-1.714,2.923-4.334,5.342-7.257,7.458v-43.844
	c4.737,4.738,8.668,9.676,9.373,17.438l0.102,0.807c0.201,5.14,0.504,9.877-0.504,13.707c-0.303,1.008-0.605,1.914-1.009,2.822
	C462.02,375.945,461.717,376.55,461.717,376.55z M501.227,282.513c-6.652,3.125-11.087,7.458-14.11,11.49
	c-1.814,2.419-3.125,4.838-3.932,6.652c-1.915,4.132-1.008,8.97-3.023,11.087c-2.52,2.721-5.442-1.613-12.195,2.217
	c-1.108,0.605-2.016,1.412-2.923,2.42c-4.737,5.14-7.156,14.312-7.156,14.312s-1.411-5.04-5.039-5.342c-0.102,0-0.102,0-0.202,0
	c-0.302,0-0.705,0-1.108,0.101c1.713,1.411,2.722,3.527,2.722,5.846v6.652c3.829,2.52,6.45,5.342,9.272,11.49
	c0.101-5.543,0.907-11.087,3.83-15.824c3.527-5.846,9.574-7.66,15.319-9.373c5.846-1.714,11.39-3.326,13.103-9.475
	c1.109-3.729,1.21-6.551,1.311-9.07c0.706-11.39,4.536-13.406,14.11-18.042c-6.651,4.536-11.489,6.955-12.095,18.243
	c-0.201,2.62-0.302,5.543-1.411,9.475c-1.008,3.325-2.821,5.543-5.14,7.055c8.566,1.512,11.288-1.209,17.537-5.543
	c-4.535,7.861-11.389,9.574-20.158,6.954c-2.016,0.907-4.334,1.612-6.651,2.317c-5.342,1.613-10.986,3.227-14.111,8.467
	c-4.031,6.652-3.729,15.119-3.427,22.98c0.102,0.807,0.102,1.512,0.102,2.318c0.201,3.729,0.302,7.256-0.102,10.381
	c7.459-8.567,17.336-9.172,26.307-2.621c-8.063-4.535-19.957-5.846-27.919,8.366c-2.419,5.241-5.745,8.365-9.776,10.583v4.232
	c3.729-1.311,7.357-3.527,9.172-5.946c0.302-0.403,0.604-0.806,0.806-1.108c0.403-0.605,0.807-1.109,1.21-1.613
	c2.116-2.62,3.931-4.031,8.869-4.736c0.807-0.102,1.512-0.202,2.016-0.202c1.411,0,2.218,0.403,2.722,0.907
	c1.008,0.907,1.612,2.117,4.133,2.52c3.427,0.504,5.745-0.402,7.155-1.814c0.504-0.402,0.807-0.906,1.21-1.512c0,0,0,0,0-0.101
	c1.311-2.218-0.101-3.023-0.101-3.023s10.784-6.753,4.636-15.018l0,0c-6.147-8.265-20.057-4.435-20.057-4.435
	c2.62-4.334,15.319-11.289,16.429-14.313c1.108-3.023-3.629-5.342-3.629-5.342c2.318,1.209,5.645,1.411,9.272,0.807
	c8.467-1.411,18.243-6.955,19.251-13.305c1.512-9.07-8.869-14.412-8.869-14.412s8.567-10.583,9.475-15.724
	C519.167,287.452,517.453,274.853,501.227,282.513z M286.544,320.713c0.101-0.807,0.101-1.714,0-2.521v-0.101
	c-0.504-4.737-3.729-9.475-9.575-13.305c-0.504-0.302-1.008-0.705-1.512-1.008c-0.605-0.303-1.21-0.705-1.814-1.008
	c-2.621-1.311-5.543-2.419-8.567-3.225c-1.209-4.032-2.016-9.676-2.419-16.126c-1.311-20.359,0.706-48.479,0.806-59.566
	c0-0.504,0-1.008,0-1.512v-5.141l-21.267-12.296c0,0.201,0,0.302,0,0.504c0,6.249-3.528,9.575-8.466,8.668
	c-0.202,2.116-0.907,3.83-2.016,5.039v3.226c0,12.296,3.628,59.566-1.209,77.507c-3.125,1.008-6.047,2.218-8.668,3.729
	c-4.132,2.419-7.156,5.241-8.87,8.265c-1.209,2.016-1.814,4.032-2.016,6.147c-0.101,0.605-0.101,1.21,0,1.814v6.35
	c-0.101,0.605-0.101,1.21,0,1.814v0.403l0,0c0.504,5.141,4.233,10.28,11.086,14.212c14.816,8.566,38.804,8.668,53.419,0.201
	c7.861-4.535,11.49-10.583,10.885-16.529v-5.543H286.544z"></path>
<path id="color_x5F_6" fill="#F4B922" d="M415.354,339.358c-21.568-12.498-13.707-7.962-35.276-20.562v-9.373
	c21.469,12.396,13.809,7.963,35.276,20.359V339.358z M380.077,324.744v9.373c21.569,12.498,13.708,7.963,35.276,20.461v-9.475
	C393.785,332.807,401.546,337.242,380.077,324.744z M380.077,340.064v9.373c21.569,12.498,13.708,7.962,35.276,20.561v-9.475
	C393.785,348.026,401.546,352.461,380.077,340.064z M366.874,336.436l1.512-0.605l-7.257-4.132v-2.016v-0.706v-2.62v-0.403v-1.814
	v-3.023v-7.761v-0.706l-1.915-1.107l-0.403-0.202l-6.047-3.528l-7.963-4.636l-2.721-1.612v0.705v2.419v9.272v4.535v2.017
	l-5.645-3.226l-1.612-0.906l0.806,1.31l3.226,5.14l0.403,0.605l6.954,10.986l0.202,0.302l1.209,1.915l0.705,1.109l0.807,1.209
	l2.218,3.527l0.302,0.403l0.303-0.101l2.218-0.907l0.806-0.302l9.071-3.83L366.874,336.436z M392.071,367.076l-0.504-0.303
	l-0.202-0.102l-0.302-0.201l-0.504-0.303l-0.101-0.101l-0.403-0.302l-0.504-0.303l-0.101-0.101l-0.605-0.403l-0.101-0.102
	l-0.504-0.302l-0.303-0.202l-0.302-0.201l-0.504-0.303l-0.202-0.1l-0.504-0.303l-0.705-0.403l-0.202-0.101l-0.504-0.303
	l-0.302-0.201l-0.403-0.201l-0.504-0.303l-0.101-0.102H383l-0.101-0.101l-0.504-0.302l-0.403-0.303l-0.101-0.101l-0.504-0.303
	l-0.303-0.202l-0.201-0.1l-0.504-0.303l-0.303-0.201l-22.979-13.204v2.419c21.568,12.498,13.707,7.963,35.276,20.561v-0.1
	c7.155,4.132,7.357,4.232,22.979,13.304v-2.62l-22.979-13.204L392.071,367.076z M392.071,375.542l-0.504-0.303l-0.202-0.101
	l-0.302-0.201l-0.504-0.303l-0.101-0.102l-0.403-0.302l-0.504-0.302l-0.101-0.102l-0.605-0.303l-0.101-0.1l-0.504-0.303
	l-0.303-0.201l-0.302-0.202l-0.504-0.302l-0.202-0.102l-0.504-0.303l-0.705-0.402l-0.202-0.102l-0.504-0.302l-0.302-0.202
	l-0.403-0.201l-0.504-0.303l-0.101-0.101l-0.605-0.403L383,369.897l-0.504-0.302l-0.403-0.303l-0.101-0.102l-0.504-0.302
	l-0.303-0.202l-0.201-0.1l-0.504-0.303l-0.303-0.201l-22.979-13.204v2.419c21.568,12.498,13.707,7.963,35.276,20.461v-0.102
	c7.156,4.133,7.357,4.233,22.979,13.305v-2.621l-22.979-13.203L392.071,375.542z"></path>
<path id="color_x5F_5" fill="#FFD2BB" d="M189.686,282.916c0.504,1.512,0.806,3.83,0.706,5.241
	c-0.101,1.915-1.311,1.512-1.512,2.217c-0.101,0.403,0,0.907,0.202,1.311c-0.101,0-0.302-0.101-0.403-0.101
	c-1.411-0.101-8.869,2.318-8.869,2.318l0,0c-0.101-0.605-0.202-1.008-0.202-1.008c1.613-0.202,3.225-1.008,3.628-1.411l0.101-0.101
	c0.303-0.403,0-1.713,0-1.713s-2.419-0.907-3.729-2.923c-1.31-2.016-0.706-3.83,1.209-3.83c2.016,0,2.117,2.218,2.117,2.218
	c1.209-2.016-2.117-7.66-2.117-7.66c1.209-0.202,2.621-1.512,3.225-3.024l0,0c0.101-0.202,0.101-0.504,0.202-0.706
	c0-0.101,0-0.101,0-0.201c0-0.202,0-0.303,0-0.504v-0.101c0.101,0.101,0.202,0.101,0.302,0.202c2.722,1.713,2.822,4.737,2.923,5.745
	c0.101,1.108,0.907,1.814,1.713,2.621C189.182,281.808,189.484,282.312,189.686,282.916z M210.65,247.841
	c-0.403,0.302-1.31,1.109-1.612,1.311c0,0,2.117-3.125,1.713-3.628c-0.504-0.504-2.923,3.125-2.923,3.125s1.915-4.334,1.512-4.838
	c-0.101-0.101-0.202-0.303-0.605,0.101c-0.806,1.008-2.318,3.628-2.52,3.931c0.202-0.403,2.217-3.83,1.31-4.435
	c-1.008-0.605-3.83,6.551-3.83,6.551s0.101-1.512-0.403-2.117c-0.504-0.706-1.008-0.202-1.008-0.202s0.101,1.714-0.302,2.419
	c-0.303,0.706-0.403,3.326-0.303,4.133c0.202,0.806,0.403,2.116,0.403,2.116s2.419-1.411,3.427-1.31c0.101,0,0.202,0,0.302,0.101
	h0.101c0.101,0,0.202,0.101,0.302,0.101h0.101c0.101,0.101,0.202,0.101,0.303,0.202l0,0c0.403,0.201,0.706,0.504,1.008,0.604
	c0.101,0,0.101,0.101,0.101,0.101l0,0c0,0,0.202-1.411,0.303-1.512c0.101-0.202,2.923-6.148,2.923-6.551
	C211.154,247.942,210.953,247.64,210.65,247.841z"></path>
<path id="color_x5F_4" fill="#00CEC9" d="M193.818,336.334C193.818,336.334,193.717,336.334,193.818,336.334
	C193.717,336.334,193.818,336.334,193.818,336.334z M192.407,336.838c0.504-0.201,0.907-0.302,1.31-0.504
	C193.314,336.536,192.911,336.738,192.407,336.838z M565.53,374.836l-296.825,174.87L34.369,414.648l141.004-80.935
	c-0.504,1.21-0.907,2.419-0.504,3.226c0.504,1.108,2.419,22.678,2.419,22.678l-9.373,24.391v0.102
	c-1.109,2.922-1.713,7.156,0.101,7.76c0.806,0.303,2.117,0.504,3.931-0.1c3.427-1.109,4.939-2.117,4.939-2.117
	s4.535-0.303,6.954-2.318c2.318-1.915,2.117-3.83,1.613-5.039s-1.713-0.807-1.713-0.807s-3.427,1.008-6.551,1.613l10.684-21.065
	l-0.706-3.83l4.233,9.474l-0.907,26.407c0,0,0.101,0,0.101,0.101l0,0l-0.403,4.233c0,0,1.008,1.915,4.536,1.915
	c3.527,0,5.342-0.604,5.342-0.604s4.435,1.108,7.357-0.101c2.822-1.109,3.225-3.024,3.125-4.233
	c-0.101-1.311-1.411-1.311-1.411-1.311s-8.668-0.101-10.885-1.612l0,0c1.209-8.869,2.923-19.15,3.226-27.616
	c0.101-2.722-4.838-30.438-4.838-30.438c-0.706,0.504-1.714,1.108-2.822,1.612c2.822-1.31,4.636-3.124,4.636-3.124s0-5.141,0-10.785
	c0-0.504,0-1.209,0-1.914l14.614-8.366c-1.209,2.017-1.814,4.032-2.016,6.148c-0.101,0.604-0.101,1.21,0,1.813v6.35
	c-0.101,0.605-0.101,1.21,0,1.814v0.403l0,0c0.504,5.141,4.233,10.28,11.087,14.212c14.816,8.566,38.804,8.668,53.418,0.201
	c7.861-4.535,11.49-10.583,10.885-16.529v-5.645c0.101-0.807,0.101-1.713,0-2.52v-0.101c-0.504-4.737-3.729-9.475-9.575-13.305
	c-0.504-0.302-1.008-0.705-1.512-1.008c-0.604-0.302-1.209-0.706-1.814-1.008c-2.621-1.31-5.543-2.419-8.567-3.225
	c-1.209-4.032-2.016-9.676-2.419-16.126l73.576-42.231l51.403,29.935c-1.21,2.117-2.017,4.636-1.513,7.56
	c1.513,9.071,20.965,16.529,28.625,12.498c0,0-4.637,2.318-3.629,5.342c1.108,3.024,13.708,9.979,16.429,14.313
	c0,0-0.504-0.102-1.311-0.303l-95.246-55.031c-1.31-0.807-2.821-0.605-3.931,0.101l-2.923,1.814h0.101
	c-1.108,0.604-1.914,1.814-1.914,3.326v91.315l-27.617-15.925l-31.749,18.344v36.587l-23.686,13.707
	c-1.411,0.807-2.016,2.218-1.915,3.629v-0.102v3.226c0,1.311,0.604,2.52,1.915,3.326l119.637,69.142c2.318,1.311,5.241,1.311,7.66,0
	l79.321-45.759c1.311-0.806,2.016-2.217,1.915-3.527v-2.923c0.101-1.411-0.504-2.822-1.915-3.629
	c1.411,0.807,2.923,0.605,4.133-0.201c0,0-0.102,0-0.102,0.101c2.017-1.209,4.737-2.318,4.737-5.039v-10.785
	c0.706-0.201,1.21-0.402,1.714-0.705c3.527-2.016,4.838-2.923,9.373-1.814c4.435,1.21,2.117,2.923,4.938,4.637
	c2.822,1.814,5.04,1.311,6.552,0.201c1.512-1.108,0.807-2.016,0.807-2.016s9.07-1.411,7.357-8.567
	c-1.714-7.155-11.894-8.668-11.894-8.668c3.023-2.116,13.305-3.023,14.917-4.736c1.612-1.613-0.807-4.536-0.807-4.536
	c3.931,4.838,18.848,5.544,22.477-0.101c3.628-5.543-1.714-11.994-1.714-11.994s8.668-4.535,10.684-7.66
	c2.017-3.124,4.436-11.893-8.365-11.49c-5.241,0.202-9.475,1.714-12.599,3.528c-0.504,0.302-0.907,0.604-1.411,0.907l0,0
	c-6.148-8.266-20.057-4.436-20.057-4.436c2.62-4.334,15.319-11.288,16.429-14.312c1.108-3.023-3.629-5.342-3.629-5.342
	c2.318,1.21,5.645,1.411,9.272,0.806L565.53,374.836z M304.385,336.536c0,0,6.651,1.008,7.659-5.04
	C307.71,329.078,303.477,334.318,304.385,336.536z M213.271,380.178c2.016,12.096,15.32,9.979,15.32,9.979
	C230.405,385.722,222.04,375.239,213.271,380.178z M228.893,362.641c1.008,6.047,7.66,4.939,7.66,4.939
	C237.46,365.361,233.227,360.121,228.893,362.641z M452.948,325.349c3.527,0.302,5.039,5.342,5.039,5.342s2.419-9.172,7.156-14.312
	l-8.97-5.242c0,0.102,0.101,0.303,0.101,0.404c1.008,3.124-2.722,8.063-3.528,13.808
	C452.848,325.349,452.948,325.349,452.948,325.349z"></path>
<path id="color_x5F_3" fill="#E84393" d="M174.87,336.939c0.504,1.108,2.419,22.678,2.419,22.678l-9.373,24.391v0.102
	c0.201,0.504,0.907,2.418,2.822,2.922c2.318,0.605,4.435,0,4.435,0l2.016-3.93l10.684-21.065l-0.706-3.83l4.233,9.474l-0.907,26.407
	c0,0,0.101,0,0.101,0.101c1.613,1.814,5.443,2.218,7.257,0.605c0.101-0.706,0.202-1.512,0.303-2.218
	c1.209-8.87,2.923-19.149,3.225-27.616c0.101-2.721-4.838-30.438-4.838-30.438c-1.008,0.706-2.52,1.612-4.233,2.218l0,0
	c-0.202,0.101-0.403,0.101-0.605,0.201c0,0,0,0-0.101,0c-0.303,0.101-0.605,0.201-0.907,0.303c-0.101,0-0.202,0.101-0.302,0.101
	c-0.101,0-0.303,0.101-0.403,0.101s-0.302,0.101-0.403,0.101c-0.101,0-0.202,0-0.302,0c-0.302,0-0.504,0.101-0.806,0.101
	c-0.101,0-0.101,0-0.202,0c-0.202,0-0.504,0-0.706,0c-0.101,0-0.202,0-0.202,0c-0.302,0-0.504,0-0.806,0h-0.101
	c-0.302,0-0.604-0.101-0.907-0.101c-0.101,0-0.101,0-0.202,0c-0.302-0.101-0.504-0.101-0.807-0.201c-0.101,0-0.101,0-0.201-0.101
	c-0.303-0.102-0.605-0.202-0.907-0.303c-4.132-1.613-6.249-3.326-7.358-4.737l0,0c-0.201,0.504-0.504,1.008-0.705,1.513
	C174.87,334.924,174.467,336.133,174.87,336.939z"></path>
<path id="color_x5F_2" fill="#FBC02D" d="M183.739,257.618l6.551,3.729c0.807,5.04,1.814,12.498,1.109,16.126
	c0,0-0.504,2.217-1.814,5.442c-0.202-0.604-0.403-1.108-0.706-1.31c-0.907-0.806-1.612-1.512-1.713-2.621
	c-0.101-1.108-0.302-4.132-2.923-5.745l-2.117-15.018C182.228,258.122,182.933,257.82,183.739,257.618z M207.828,257.417
	c-0.101,0-0.101,0-0.202-0.101h-0.101c-0.101,0-0.302-0.101-0.403-0.101h-0.101c-0.101,0-0.302,0-0.403,0c-0.101,0-0.101,0-0.202,0
	c-0.101,0-0.202,0-0.302,0c-0.101,0-0.202,0-0.303,0c-0.101,0-0.101,0-0.201,0c-0.101,0-0.202,0-0.303,0c-0.101,0-0.101,0-0.101,0
	c-0.101,0-0.202,0-0.302,0h-0.101c-0.101,0-0.202,0-0.202,0l0,0h-0.101l-2.117,1.109l-0.202,4.132l-0.706,15.925
	c0,0-5.846,10.28-6.752,11.389c-0.907,1.108-4.536,2.217-4.536,2.217l0,0c0.504,0.403,0.907,0.806,0.907,0.806
	s-0.302,0.302-3.628,0.806c-3.326,0.504-7.156,3.83-7.257,3.83c-0.201,0-1.411-1.008-1.411-1.31s1.008-2.217,1.008-2.318
	c-0.101-0.604-0.202-1.008-0.202-1.008c1.613-0.202,3.225-1.008,3.628-1.411c-0.605,0.605-4.032,2.217-6.249,1.109
	c0,0,0-0.101-0.101-0.202c-0.706,1.613-1.613,4.435-1.209,7.962c0.706,5.846-0.706,29.431-0.706,29.431s0.101,1.008,1.209,2.317l0,0
	c1.108,1.412,3.225,3.227,7.357,4.738c0.302,0.1,0.605,0.201,0.907,0.302c0.101,0,0.101,0,0.202,0.101
	c0.302,0.102,0.504,0.102,0.806,0.202c0.101,0,0.101,0,0.202,0c0.302,0.101,0.604,0.101,0.907,0.101h0.101c0.302,0,0.504,0,0.806,0
	c0.101,0,0.202,0,0.202,0c0.202,0,0.504,0,0.706,0c0.101,0,0.101,0,0.202,0c0.302,0,0.504,0,0.806-0.101c0.101,0,0.202,0,0.303,0
	c0.201,0,0.302,0,0.403-0.101c0.101,0,0.303,0,0.403-0.102c0.101,0,0.202,0,0.302-0.101c0.302-0.101,0.605-0.202,0.907-0.302
	c0,0,0,0,0.101,0c0.202-0.102,0.403-0.102,0.605-0.202l0,0c3.628-1.31,6.047-3.729,6.047-3.729s0-5.141,0-10.784
	c0-0.504,0-1.21,0-1.915c0.101-6.854,0.806-20.561,0.806-20.561c6.854-7.156,9.172-17.437,9.172-17.437
	c0.907-4.636-0.101-18.444-0.504-23.383C207.929,258.122,207.828,257.517,207.828,257.417z M248.446,203.494l9.776-4.132
	l-4.233-2.419v-11.087l-11.188-6.451v0.706c0.605,1.613,1.008,3.225,1.008,4.838c0,1.512-0.403,2.822-1.008,3.628v1.814
	l-1.209-0.706c-0.101,0-0.101,0.101-0.201,0.101c0.101,0.605,0.201,1.311,0.201,1.915c0,0.302,0,0.504-0.101,0.806L248.446,203.494z
	 M206.316,215.791c-0.302-0.202-0.705-0.303-1.008-0.504c-0.403-0.202-0.706-0.403-1.008-0.605l-0.101-0.101
	c-2.419,4.636-7.66,5.946-13.808,2.822c-0.303-0.202-0.706-0.302-1.008-0.504c-0.302-0.202-0.706-0.403-1.008-0.604
	c-2.419-1.613-4.737-3.729-6.753-6.148c-1.008,0.303-2.116,0.202-3.326-0.101l-9.777,5.644l28.625,16.53l0.101,0.101l23.081-13.304
	c-1.108-0.806-2.217-1.713-3.225-2.721C214.379,218.008,210.549,218.008,206.316,215.791z M239.274,169.729
	c0.604,0.403,1.209,0.907,1.814,1.512l22.879,13.204l0.101,0.101l13.103-7.559c-1.915-1.411-3.528-3.225-5.04-5.342
	c-0.101-0.101-0.303-0.202-0.403-0.403c-1.814,1.209-4.334,1.209-7.156-0.302c-0.201-0.101-0.403-0.202-0.604-0.403
	c-0.202-0.101-0.504-0.303-0.706-0.403l-0.101-0.101c-1.613,3.125-5.04,3.931-9.071,1.915c-0.202-0.101-0.403-0.202-0.604-0.302
	c-0.303-0.202-0.504-0.302-0.706-0.403c-1.613-1.008-3.125-2.419-4.435-4.031c-0.907,0.302-2.016,0.101-3.326-0.504
	c-0.101-0.101-0.202-0.101-0.403-0.202c-0.101-0.101-0.302-0.202-0.403-0.302c-0.504-0.303-1.008-0.706-1.512-1.21
	c-0.706,0.403-1.713,0.504-2.721,0.202l-4.737,2.722l2.117,1.209C237.964,169.125,238.569,169.326,239.274,169.729z
	 M326.155,418.579l8.668,4.938l1.713,1.008l8.668,4.938l5.039-2.923l-4.838-2.822l-3.023-1.713l-0.806-0.403l-1.613-1.008
	l-6.249-3.629l-5.039,2.923l-12.699-7.357l0,0l8.668,4.938L326.155,418.579z M451.537,333.109v91.617c0,0.202,0,0.303,0,0.505
	c0,0.101,0,0.201-0.101,0.302c0,0.101,0,0.101,0,0.202c0,0.101-0.101,0.302-0.101,0.402l0,0c-0.202,0.605-0.605,1.109-1.109,1.513
	l0,0c-0.101,0.101-0.201,0.101-0.302,0.201c-1.109,0.807-2.722,1.008-4.133,0.201c1.411,0.807,2.016,2.218,1.915,3.629
	c0,0.604-0.201,1.108-0.504,1.612c0,0,0,0,0,0.101c-0.101,0.202-0.303,0.504-0.504,0.706l-0.101,0.101
	c-0.202,0.101-0.303,0.303-0.504,0.403c-0.102,0-0.102,0.101-0.202,0.101l-79.321,45.759c-2.318,1.411-5.241,1.411-7.66,0
	l-119.738-69.142c-0.302-0.202-0.504-0.403-0.806-0.604l0,0c-0.202-0.202-0.403-0.403-0.504-0.706c0,0,0-0.101-0.101-0.101
	c-0.101-0.202-0.201-0.504-0.302-0.706v-0.101c-0.101-0.201-0.101-0.504-0.101-0.705c-0.101-1.411,0.504-2.822,1.915-3.629
	l23.686-13.707v0.101l31.749,18.344l3.729-2.116l87.889,50.798l34.57-19.957l3.629,2.117l13.002-7.459v-9.574v-5.443l-13.002,7.459
	h-0.101l-12.901-7.459v0.605l-76.802-44.348v-1.311l-9.071,5.241l0,0l-8.97-5.241l9.071-5.24l0.705,0.402v-8.869v-4.637
	l-31.749,18.344l-0.101-0.101l-31.648-18.243l31.749-18.344l27.617,15.925v-91.315c0-1.512,0.806-2.621,1.915-3.326
	c0,0,0.101,0,0.101-0.101c0.101-0.101,0.201-0.101,0.302-0.101c0.102,0,0.102,0,0.202-0.101c0.101,0,0.201-0.101,0.302-0.101
	c0.102,0,0.202,0,0.202-0.101c0.101,0,0.101,0,0.201,0s0.202,0,0.303,0s0.101,0,0.201,0c0.102,0,0.202,0,0.303,0s0.101,0,0.201,0
	c0.102,0,0.303,0,0.403,0.101h0.101c0.102,0,0.303,0.101,0.403,0.101c0,0,0,0,0.101,0c0.202,0.101,0.303,0.101,0.505,0.201
	l119.737,69.142C450.025,327.868,451.537,330.389,451.537,333.109z M335.528,435.31l-26.81-15.521c-0.504-0.302-1.21-0.302-1.714,0
	l-17.84,10.281c-0.604,0.302-0.604,1.209,0,1.512l26.911,15.521c0.504,0.302,1.209,0.302,1.713,0l17.84-10.28
	C336.133,436.52,336.133,435.713,335.528,435.31z M443.474,333.311L330.388,268v83.454l113.086,65.715V333.311z M271.225,367.277
	v12.195l-4.636-2.722l10.885,17.034l10.885-4.536l-4.636-2.722v-12.195L271.225,367.277z M414.95,423.014v4.938l-1.915-1.108
	l4.436,6.954l4.435-1.813l-1.915-1.109v-5.039L414.95,423.014z M313.858,393.482v7.66l-2.923-1.714l6.753,10.684l6.753-2.923
	l-2.923-1.713v-7.66L313.858,393.482z M411.523,430.976l-1.915-1.108l-5.039,2.923l8.668,4.938l3.527-2.016l-5.141-3.023v-1.714
	H411.523z M382.698,443.474l5.039-2.923l-8.668-4.938l-5.039,2.923L382.698,443.474z M319.1,376.449v3.527l-1.311-0.807l3.125,4.838
	l3.124-1.311l-1.31-0.806v-3.427L319.1,376.449z M376.953,423.82v4.938l-1.915,1.108l4.435,1.915l4.435-6.954l-1.915,1.108v-5.039
	L376.953,423.82z M308.617,385.419l19.855,11.49h0.102l19.956-11.49l-13.809-7.962v5.744l-9.07,5.242l-8.971-5.242v-2.52
	L308.617,385.419z M176.079,227.28v11.087l-4.233-2.419l9.776,15.421l9.777-4.132l-4.233-2.419v-11.087L176.079,227.28z
	 M326.054,117.823v11.087l-4.232,2.419l0,0l6.45,2.721c1.311-0.604,2.822-0.806,4.435-0.604l8.567-13.506l-4.233,2.419v-11.087
	L326.054,117.823z M236.754,86.679l20.259-11.692l-17.134-9.877l-3.225-1.915l-20.359,11.692L236.754,86.679L236.754,86.679z
	 M316.177,116.311l28.624-16.529l-28.725-16.63l-28.725,16.63l28.725,16.529H316.177z M439.946,229.901
	c-0.101,0.101-0.303,0.101-0.403,0.202c-0.101,0-0.201,0.101-0.201,0.202c-0.102,0.101-0.202,0.202-0.303,0.202
	c-0.101,0.101-0.201,0.101-0.201,0.201c-0.102,0.101-0.202,0.202-0.303,0.303c-0.101,0.101-0.101,0.201-0.201,0.201
	c-0.102,0.202-0.202,0.303-0.303,0.504c-0.101,0.101-0.101,0.202-0.101,0.303c-0.101,0.202-0.202,0.403-0.202,0.604
	c0,0.101-0.101,0.202-0.101,0.303c-0.101,0.201-0.101,0.403-0.201,0.604c0,0.101-0.101,0.202-0.101,0.403s-0.102,0.403-0.102,0.706
	c0,0.101,0,0.202,0,0.302c0,0.302-0.101,0.706-0.101,1.108c0,5.342,3.125,11.49,7.056,13.708l13.404,7.761l9.575,5.543l6.249,3.628
	c0.202,0.101,0.504,0.202,0.706,0.302c1.813,0.605,3.124-0.806,3.124-3.326c0-2.923-1.713-6.249-3.83-7.458
	c-0.302-0.202-0.604-0.302-0.907-0.403c-0.705-3.225-2.52-6.249-4.636-7.861c-0.605-7.358-4.939-15.421-10.18-18.445
	c-4.637-2.721-8.668-0.706-9.878,4.435c-1.008-1.411-2.217-2.621-3.527-3.326C442.566,229.599,441.156,229.397,439.946,229.901z
	 M437.931,316.076c0,0.402,0,0.807,0,1.209l1.915,1.109c0-1.21,0.101-2.42,0.201-3.629l0.101-0.807
	c1.009-10.885,8.266-16.328,15.421-23.181c-7.559,4.032-11.288,6.047-15.219,14.917c-0.101-5.544-0.907-11.087-3.83-15.825
	c-3.527-5.846-9.575-7.66-15.32-9.374c-5.846-1.713-11.389-3.326-13.103-9.373c-1.108-3.729-1.209-6.551-1.411-9.071
	c-0.604-11.389-4.435-13.405-14.11-18.041c6.652,4.535,11.49,6.954,12.095,18.243c0.201,2.621,0.303,5.543,1.411,9.474
	c0.907,3.326,2.822,5.543,5.141,7.055c-8.467,1.613-11.289-1.209-17.538-5.543c4.536,7.862,11.39,9.575,20.158,6.955
	c2.016,0.907,4.334,1.613,6.652,2.318c5.342,1.612,10.985,3.326,14.11,8.466c4.031,6.652,3.729,15.118,3.326,22.979
	C437.931,314.463,437.931,315.27,437.931,316.076z M393.583,182.933l20.058,11.591l14.211,8.164l9.272,5.342
	c0.604,0.302,1.21,0.504,1.714,0.604c2.318,0.302,4.031-1.613,4.031-5.14c0-4.334-2.52-9.374-5.745-11.188
	c-0.403-0.303-0.907-0.403-1.311-0.605c-1.008-4.737-3.729-9.272-6.954-11.691c-0.807-10.986-7.257-22.98-15.219-27.617
	c-6.955-4.031-12.901-1.008-14.716,6.652c-1.512-2.117-3.326-3.931-5.241-5.04c-2.318-1.31-4.435-1.512-6.147-0.806
	c-0.202,0.101-0.403,0.202-0.605,0.302c-0.101,0.101-0.201,0.101-0.302,0.202c-0.202,0.101-0.303,0.202-0.504,0.403
	c-0.102,0.101-0.202,0.201-0.303,0.302c-0.201,0.202-0.303,0.302-0.403,0.504c-0.101,0.101-0.201,0.202-0.302,0.302
	c-0.202,0.302-0.303,0.504-0.504,0.807c-0.102,0.101-0.102,0.201-0.202,0.302c-0.101,0.302-0.302,0.604-0.403,0.907
	c-0.101,0.202-0.101,0.303-0.201,0.504c-0.101,0.303-0.202,0.504-0.202,0.807c0,0.202-0.101,0.403-0.101,0.504
	c-0.101,0.302-0.101,0.604-0.101,1.008c0,0.202,0,0.302-0.101,0.504c0,0.504-0.101,1.109-0.101,1.613
	C383,170.435,387.737,179.607,393.583,182.933z M243.709,87.788v7.358c0.101,0.101,0.302,0.101,0.403,0.201
	c1.512,0.907,2.923,2.218,4.132,3.83l6.249-9.877l-3.024,1.713v-7.761L243.709,87.788z M189.787,145.943l28.523-16.429
	c0-0.101-0.101-0.202-0.101-0.303l-15.421-8.869l-12.901-7.458l-28.725,16.529l28.523,16.53H189.787z M149.37,85.671l-3.225-1.915
	l1.814,2.822c0.504,0.403,0.907,0.807,1.411,1.311c1.209-3.628,4.636-4.838,8.769-2.722v-3.023l-8.668-5.04v8.567H149.37z
	 M179.305,162.876l2.621-1.109c0.504-0.504,1.108-0.806,1.814-1.008l-3.931-2.318v-11.087l-11.087-6.451v11.087l-4.233-2.419
	l8.265,13.001C174.366,161.465,176.684,161.465,179.305,162.876z M81.64,211.557l-11.087-6.451v11.087l-4.233-2.419l9.777,15.421
	l9.776-4.132l-4.233-2.419V211.557z M62.994,193.617l28.523,16.529l0.101,0.101l28.725-16.53l-28.625-16.63L62.994,193.617z
	 M132.841,142.919l-11.188-6.451v11.087l-4.233-2.419l9.776,15.421l9.777-4.132l-4.233-2.419v-11.087H132.841z M165.799,80.934
	l21.367-12.296c-0.101-0.101-0.101-0.202-0.202-0.202c-0.705,0.202-1.612,0.101-2.62-0.403c-0.101-0.101-0.202-0.101-0.303-0.202
	c-0.101-0.101-0.202-0.101-0.302-0.202c-0.403-0.303-0.806-0.605-1.209-0.907c-0.806,0.403-1.814,0.403-3.023-0.202
	c-0.101-0.101-0.202-0.101-0.303-0.202c-0.101-0.101-0.202-0.101-0.302-0.201c-1.814-1.21-3.427-3.427-4.032-5.645l-1.915-1.108
	l-7.257-4.233l-22.375,12.901L165.799,80.934L165.799,80.934z M343.188,420.595l8.668,4.938l5.039-2.923l-8.668-4.938
	L343.188,420.595z M400.94,422.913l8.668,4.938l1.915-1.108v-3.629l-5.543-3.226L400.94,422.913z M411.523,438.736l-8.668-4.938
	l-5.039,2.923l8.668,4.939L411.523,438.736z M390.66,417.067l8.668,4.938l5.039-2.923l-8.668-4.938L390.66,417.067z M380.38,411.02
	l8.668,4.938l5.039-2.923l-8.668-4.938L380.38,411.02z M394.49,436.62l-8.668-4.938l-5.039,2.923l8.668,4.938L394.49,436.62z
	 M391.365,450.327l-8.667-4.938l-5.04,2.923l8.668,4.938L391.365,450.327z M404.771,442.566l-8.668-4.938l-5.039,2.923l8.668,4.938
	L404.771,442.566z M370.1,405.174l8.667,4.938l5.04-2.923l-8.668-4.938L370.1,405.174z M461.918,402.452
	c1.21-1.915,2.117-4.334,3.125-6.854c0.201-0.504,0.403-1.008,0.604-1.512c2.016-5.241,4.233-10.985,8.769-14.212
	c1.512-1.107,3.226-1.611,4.939-1.813c-0.605-0.504-1.411-0.907-2.722-0.907c-1.008,0.303-2.016,0.807-3.023,1.512
	c-3.326,2.318-5.443,5.745-7.056,9.373c0-2.418-0.303-4.334-0.807-5.945c-0.402,0.504-0.806,1.008-1.209,1.611
	c0.807,3.024,0.907,6.25-0.202,9.878l-0.201,0.504c-1.311,3.427-2.52,6.652-4.233,8.869c-0.504,0.605-0.907,1.109-1.512,1.613
	s-0.907,0.806-1.008,0.806c-0.907,0.605-1.814,1.21-2.923,1.613v1.713c1.612-0.705,3.226-1.612,4.737-3.023
	c9.272-7.055,16.73-2.822,20.763,2.52C475.928,401.344,469.276,398.925,461.918,402.452z M381.085,444.381l-8.668-4.938
	l-5.039,2.923l8.668,4.938L381.085,444.381z M492.659,322.324c2.318-1.512,4.233-3.729,5.141-7.055
	c1.108-3.931,1.31-6.854,1.411-9.475c0.604-11.288,5.442-13.707,12.095-18.242c-9.575,4.636-13.405,6.753-14.111,18.041
	c-0.101,2.52-0.302,5.342-1.31,9.071c-1.714,6.048-7.257,7.659-13.103,9.474c-5.745,1.714-11.692,3.527-15.32,9.374
	c-2.923,4.737-3.729,10.28-3.83,15.823c-2.722-6.147-5.342-8.97-9.272-11.489v2.218c4.737,4.736,8.668,9.676,9.373,17.436
	l0.101,0.807c0.202,5.141,0.504,9.877-0.504,13.707c-0.302,1.008-0.604,1.916-1.008,2.822c-0.504,0.907-0.806,1.512-0.806,1.613
	c-1.714,2.922-4.334,5.342-7.257,7.458v2.52c4.031-2.218,7.458-5.342,9.776-10.583c7.962-14.211,19.755-12.9,27.919-8.365
	c-8.971-6.451-18.848-5.846-26.307,2.621c0.403-3.125,0.303-6.652,0.101-10.382c0-0.806-0.101-1.512-0.101-2.318
	c-0.403-7.861-0.604-16.327,3.427-22.979c3.125-5.241,8.769-6.854,14.11-8.467c2.318-0.705,4.637-1.311,6.652-2.318
	c8.769,2.52,15.622,0.908,20.158-6.954C503.947,321.115,501.227,323.938,492.659,322.324z M302.57,404.973l1.411,0.806l4.636-2.721
	v-0.403v-1.109l-1.008,0.605L302.57,404.973z M359.718,399.228l8.668,4.938l5.039-2.923l-8.668-4.938L359.718,399.228z
	 M349.438,393.281l8.668,4.938l5.039-2.923l-8.668-4.939L349.438,393.281z M348.53,391.869l4.334-2.52l-4.334-2.52V391.869z
	 M308.617,404.973l-3.023,1.713l8.668,4.938l0,0l-5.645-3.225V404.973z M398.018,446.498l-8.668-4.939l-5.039,2.923l8.668,4.939
	L398.018,446.498z M372.216,408.299l-3.729-2.218l-5.039,2.923l3.729,2.218l-1.713,1.008l-3.729-2.218l-5.039,2.923l3.729,2.218
	l-1.008,0.604l13.002,7.458l0,0l12.901-7.458l-13.002-7.458H372.216z M359.415,416.462l-4.435-2.62l-5.039,2.923l8.668,4.938
	l0.907-0.504v-4.737H359.415z M370.704,438.435l-8.668-4.938l-5.04,2.923l8.668,4.938L370.704,438.435z M359.415,424.122
	l-0.906-0.504l-5.04,2.923l5.946,3.427V424.122z M401.143,432.79l-8.668-4.938l-3.125-1.814l-4.031-2.318v5.847l0.403,0.201
	l1.713,0.907l8.668,4.938L401.143,432.79z M385.419,419.99v1.713l7.156,4.133l5.039-2.923l-8.667-4.938L385.419,419.99z
	 M407.896,428.859l-8.668-4.938l-5.04,2.923l8.668,4.938L407.896,428.859z M385.419,418.075l1.915-1.109l-1.915-1.108V418.075z
	 M335.327,416.06l6.249,3.628l5.039-2.923l-6.249-3.628L335.327,416.06z M360.424,432.488l-8.668-4.939l-5.04,2.923l8.668,4.939
	L360.424,432.488z M341.979,412.229l6.249,3.628l5.04-2.923l-6.249-3.628L341.979,412.229z M348.53,400.437l2.822,1.613l5.039-2.923
	l-7.861-4.536V400.437z M348.53,408.197l6.45,3.729l5.04-2.923l-8.668-4.938l-2.822,1.612V408.197z M353.065,403.058l8.668,4.938
	l5.04-2.923l-8.668-4.938L353.065,403.058z M348.53,403.763l1.209-0.705l-1.209-0.706V403.763z"></path>
<path id="color_x5F_1_1_" fill="#01324D" d="M183.034,291.483l0.101-0.101c0.302-0.403,0-1.713,0-1.713s-2.419-0.907-3.729-2.923
	c-1.31-2.016-0.706-3.83,1.209-3.83c2.016,0,2.117,2.218,2.117,2.218c1.209-2.016-2.117-7.66-2.117-7.66
	c1.209-0.202,2.621-1.512,3.226-3.024l0,0c0.101-0.202,0.101-0.504,0.201-0.706c0-0.101,0-0.101,0-0.201c0-0.202,0-0.303,0-0.504
	c-0.101-1.512-1.31-2.822-4.838-3.024c-5.543-0.302-8.869,5.14-8.869,5.14c-4.536,5.04,0.907,12.7,3.225,14.01
	c1.915,1.109,2.923,2.722,3.125,3.226c0,0.101,0.101,0.201,0.101,0.201C179.002,293.701,182.429,292.088,183.034,291.483z"></path>
</svg>